<?xml version="1.0" encoding="UTF-8"?>
<svg xmlns="http://www.w3.org/2000/svg" xmlns:xlink="http://www.w3.org/1999/xlink" width="210px" height="210px" viewBox="0 0 210 210" version="1.1">
    <!-- Generator: Sketch 53.2 (72643) - https://sketchapp.com -->
    <title>Free Shipping</title>
    <desc>Created with Sketch.</desc>
    <g id="Free-Shipping" stroke="none" stroke-width="1">
        <g id="color-1" transform="translate(28.000000, 15.000000)">
            <path d="M150.234146,70.4195122 C150.058537,69.102439 149.882927,67.697561 149.707317,66.3804878 C149.180488,62.2536585 148.126829,53.5609756 147.863415,50.5756098 C146.897561,39.6 150.058537,25.4634146 152.078049,17.9121951 L153.219512,13.5219512 L148.917073,12.1170732 C145.931707,11.1512195 142.682927,10.1853659 139.346341,9.30731707 C126.614634,5.88292683 112.653659,3.51219512 96.497561,2.0195122 C88.4195122,1.22926829 82.0097561,0.87804878 76.302439,0.790243902 L76.2146341,0.790243902 L76.1268293,0.790243902 C70.3317073,0.87804878 64.0097561,1.22926829 55.6682927,2.10731707 C39.5121951,3.68780488 24.9365854,6.32195122 12.2926829,9.92195122 C9.74634146,10.6243902 7.37560976,11.3268293 5.09268293,12.1170732 L0.790243902,13.5219512 L1.93170732,17.9121951 C3.95121951,25.3756098 7.11219512,39.6 6.14634146,50.5756098 C5.88292683,53.4731707 4.91707317,61.4634146 4.3902439,65.7658537 L4.30243902,66.3804878 C4.12682927,67.697561 3.95121951,69.0146341 3.77560976,70.3317073 C1.14146341,90 -1.93170732,112.214634 2.37073171,130.302439 C7.2,150.936585 17.7365854,161.736585 37.4926829,166.390244 C38.8097561,166.741463 40.2146341,167.004878 41.7073171,167.356098 C52.5073171,169.814634 65.9414634,172.887805 74.4585366,178.243902 L77.004878,179.82439 L79.5512195,178.243902 C88.1560976,172.887805 101.590244,169.814634 112.390244,167.356098 C113.795122,167.004878 115.2,166.741463 116.517073,166.390244 C136.273171,161.736585 146.721951,150.936585 151.639024,130.302439 C155.941463,112.302439 152.956098,90.0878049 150.234146,70.4195122 Z M148.390244,129.6 C143.82439,149.092683 134.341463,158.839024 115.814634,163.141463 C114.497561,163.404878 113.092683,163.756098 111.687805,164.107317 C100.62439,166.653659 86.9268293,169.726829 77.795122,175.434146 L77.004878,175.873171 L76.2146341,175.434146 C67.1707317,169.814634 53.4731707,166.653659 42.4097561,164.107317 C41.004878,163.756098 39.6,163.492683 38.195122,163.141463 C19.6682927,158.75122 10.1853659,149.092683 5.6195122,129.6 C1.49268293,112.126829 4.47804878,90.1756098 7.11219512,70.8585366 C7.28780488,69.5414634 7.46341463,68.2243902 7.63902439,66.9073171 L7.72682927,66.2926829 C8.25365854,61.902439 9.2195122,53.9121951 9.48292683,50.9268293 C10.5365854,39.4243902 7.2,24.8487805 5.1804878,17.1219512 L4.82926829,15.804878 L6.14634146,15.3658537 C8.42926829,14.5756098 10.7121951,13.8731707 13.1707317,13.1707317 C25.6390244,9.65853659 40.0390244,7.02439024 55.9317073,5.53170732 C64.2731707,4.74146341 70.5073171,4.30243902 76.1268293,4.21463415 C81.7463415,4.30243902 88.0682927,4.65365854 96.0585366,5.44390244 C112.039024,6.93658537 125.82439,9.30731707 138.380488,12.6439024 C141.629268,13.5219512 144.790244,14.4878049 147.687805,15.4536585 L149.004878,15.8926829 L148.653659,17.2097561 C146.634146,24.9365854 143.297561,39.5121951 144.35122,51.0146341 C144.614634,54.0878049 145.668293,62.7804878 146.195122,66.995122 C146.370732,68.3121951 146.546341,69.7170732 146.721951,71.0341463 C149.531707,90.1756098 152.517073,112.126829 148.390244,129.6 Z"/>
            <path d="M54,141.804878 L55.6682927,141.804878 C56.3707317,139.346341 58.5658537,137.590244 61.2,137.590244 C63.8341463,137.590244 66.1170732,139.346341 66.7317073,141.804878 L82.3609756,141.804878 L82.3609756,115.463415 L54,115.463415 L54,141.804878 L54,141.804878 Z"/>
            <path d="M61.2,140.57561 C59.7073171,140.57561 58.4780488,141.804878 58.4780488,143.297561 C58.4780488,144.790244 59.7073171,146.019512 61.2,146.019512 C62.6926829,146.019512 63.9219512,144.790244 63.9219512,143.297561 C63.9219512,141.804878 62.6926829,140.57561 61.2,140.57561 Z"/>
            <path d="M92.6341463,140.57561 C91.1414634,140.57561 89.9121951,141.804878 89.9121951,143.297561 C89.9121951,144.790244 91.1414634,146.019512 92.6341463,146.019512 C94.1268293,146.019512 95.3560976,144.790244 95.3560976,143.297561 C95.3560976,141.804878 94.1268293,140.57561 92.6341463,140.57561 Z"/>
            <path d="M92.6341463,137.590244 C95.2682927,137.590244 97.5512195,139.346341 98.1658537,141.804878 L100.185366,141.804878 L100.185366,132.321951 L92.195122,123.190244 L85.5219512,123.190244 L85.5219512,141.804878 L87.1902439,141.804878 C87.804878,139.346341 90,137.590244 92.6341463,137.590244 Z"/>
            <path d="M82.6243902,80.7804878 L82.6243902,87.4536585 L83.8536585,87.4536585 C84.995122,87.4536585 85.8731707,87.1902439 86.4,86.5756098 C86.9268293,85.9609756 87.2780488,85.1707317 87.2780488,84.0292683 C87.2780488,82.8878049 87.0146341,82.097561 86.5756098,81.5707317 C86.1365854,81.0439024 85.3463415,80.7804878 84.3804878,80.7804878 L82.6243902,80.7804878 L82.6243902,80.7804878 Z"/>
            <path d="M67.3463415,80.7804878 L67.3463415,87.4536585 L68.5756098,87.4536585 C69.7170732,87.4536585 70.595122,87.1902439 71.1219512,86.5756098 C71.6487805,85.9609756 72,85.1707317 72,84.0292683 C72,82.8878049 71.7365854,82.097561 71.297561,81.5707317 C70.8585366,81.0439024 70.0682927,80.7804878 69.102439,80.7804878 L67.3463415,80.7804878 L67.3463415,80.7804878 Z"/>
            <path d="M145.580488,128.897561 C149.531707,111.95122 146.634146,90.3512195 144.087805,71.2097561 C143.912195,69.804878 143.736585,68.4878049 143.560976,67.1707317 L143.560976,67.1707317 C143.560976,67.1707317 143.560976,67.1707317 143.560976,67.0829268 L10.7121951,67.0829268 C10.7121951,67.0829268 10.7121951,67.0829268 10.7121951,67.1707317 L10.5365854,68.4 C10.4487805,69.2780488 10.2731707,70.2439024 10.1853659,71.1219512 C7.63902439,90.2634146 4.65365854,111.863415 8.69268293,128.809756 C13.0829268,147.336585 21.6,156.117073 39.1609756,160.243902 C40.4780488,160.595122 41.8829268,160.858537 43.2878049,161.209756 C54.2634146,163.756098 67.7853659,166.829268 77.1804878,172.360976 C86.6634146,166.741463 100.185366,163.668293 111.160976,161.121951 C112.565854,160.770732 113.970732,160.507317 115.287805,160.156098 C132.760976,156.204878 141.278049,147.42439 145.580488,128.897561 Z M105.717073,88.7707317 L105.717073,99.3073171 L102.380488,99.3073171 L102.380488,76.8292683 L107.034146,76.8292683 L114.585366,93.6878049 L114.673171,93.6878049 C114.585366,90.7902439 114.497561,88.6829268 114.497561,87.4536585 L114.497561,76.8292683 L117.834146,76.8292683 L117.834146,99.3073171 L113.092683,99.3073171 L105.541463,82.2731707 L105.453659,82.2731707 C105.629268,85.3463415 105.717073,87.4536585 105.717073,88.7707317 Z M40.5658537,89.6487805 L40.5658537,99.3073171 L36.8780488,99.3073171 L36.8780488,76.8292683 L40.5658537,76.8292683 L40.5658537,85.6097561 L47.502439,85.6097561 L47.502439,76.8292683 L51.1902439,76.8292683 L51.1902439,99.3073171 L47.502439,99.3073171 L47.502439,89.6487805 L40.5658537,89.6487805 Z M97.9902439,76.8292683 L97.9902439,99.3073171 L94.302439,99.3073171 L94.302439,76.8292683 L97.9902439,76.8292683 Z M91.0536585,83.8536585 C91.0536585,86.3121951 90.4390244,88.1560976 89.297561,89.3853659 C88.1560976,90.702439 86.4878049,91.3170732 84.2926829,91.3170732 L82.7121951,91.3170732 L82.7121951,99.3073171 L79.0243902,99.3073171 L79.0243902,76.8292683 L84.5560976,76.8292683 C86.6634146,76.8292683 88.2439024,77.4439024 89.3853659,78.5853659 C90.4390244,79.7268293 91.0536585,81.4829268 91.0536585,83.8536585 Z M75.6878049,83.8536585 C75.6878049,86.3121951 75.0731707,88.1560976 73.9317073,89.3853659 C72.7902439,90.702439 71.1219512,91.3170732 68.9268293,91.3170732 L67.3463415,91.3170732 L67.3463415,99.3073171 L63.6585366,99.3073171 L63.6585366,76.8292683 L69.1902439,76.8292683 C71.297561,76.8292683 72.8780488,77.4439024 74.0195122,78.5853659 C75.1609756,79.7268293 75.6878049,81.4829268 75.6878049,83.8536585 Z M59.2682927,76.8292683 L59.2682927,99.3073171 L55.5804878,99.3073171 L55.5804878,76.8292683 L59.2682927,76.8292683 Z M22.302439,93.8634146 C23.4439024,94.5658537 24.497561,95.004878 25.2878049,95.2682927 C26.0780488,95.5317073 26.8682927,95.7073171 27.4829268,95.7073171 C28.2731707,95.7073171 28.8878049,95.5317073 29.3268293,95.0926829 C29.7658537,94.6536585 29.9414634,94.1268293 29.9414634,93.3365854 C29.9414634,92.897561 29.8536585,92.4585366 29.6780488,92.195122 C29.502439,91.8439024 29.2390244,91.4926829 28.8,91.2292683 C28.4487805,90.8780488 27.6585366,90.4390244 26.5170732,89.7365854 C25.4634146,89.1219512 24.6731707,88.5073171 24.1463415,87.8926829 C23.6195122,87.2780488 23.1804878,86.5756098 22.8292683,85.7853659 C22.4780488,84.995122 22.3902439,84.1170732 22.3902439,82.9756098 C22.3902439,80.9560976 22.9170732,79.4634146 23.9707317,78.3219512 C25.0243902,77.1804878 26.4292683,76.6536585 28.2731707,76.6536585 C29.1512195,76.6536585 30.0292683,76.8292683 30.9073171,77.0926829 C31.697561,77.3560976 32.5756098,77.795122 33.4536585,78.2341463 L32.2243902,81.9219512 C31.2585366,81.395122 30.5560976,81.0439024 29.9414634,80.8682927 C29.3268293,80.6926829 28.7121951,80.604878 28.1853659,80.604878 C27.4829268,80.604878 26.9560976,80.7804878 26.604878,81.2195122 C26.2536585,81.6585366 26.0780488,82.1853659 26.0780488,82.8878049 C26.0780488,83.3268293 26.1658537,83.6780488 26.3414634,84.0292683 C26.5170732,84.3804878 26.6926829,84.6439024 27.0439024,84.9073171 C27.395122,85.1707317 28.1853659,85.697561 29.4146341,86.4878049 C31.0829268,87.4536585 32.1365854,88.5073171 32.7512195,89.4731707 C33.3658537,90.5268293 33.6292683,91.7560976 33.6292683,93.1609756 C33.6292683,95.1804878 33.102439,96.7609756 31.9609756,97.9902439 C30.8195122,99.1317073 29.2390244,99.7463415 27.2195122,99.7463415 C25.3756098,99.7463415 23.7073171,99.3073171 22.302439,98.4292683 L22.302439,93.8634146 L22.302439,93.8634146 Z M61.2,149.092683 C58.5658537,149.092683 56.2829268,147.336585 55.6682927,144.878049 L52.5073171,144.878049 C51.6292683,144.878049 51.0146341,144.17561 51.0146341,143.385366 L51.0146341,113.970732 C51.0146341,113.092683 51.7170732,112.478049 52.5073171,112.478049 L83.9414634,112.478049 C84.8195122,112.478049 85.4341463,113.180488 85.4341463,113.970732 L85.4341463,120.204878 L92.8097561,120.204878 C93.2487805,120.204878 93.6878049,120.380488 93.9512195,120.731707 L102.819512,130.829268 C103.082927,131.092683 103.170732,131.443902 103.170732,131.795122 L103.170732,143.297561 C103.170732,144.17561 102.468293,144.790244 101.678049,144.790244 L98.1658537,144.790244 C97.4634146,147.24878 95.2682927,149.004878 92.6341463,149.004878 C90,149.004878 87.7170732,147.24878 87.102439,144.790244 L66.8195122,144.790244 C66.1170732,147.24878 63.8341463,149.092683 61.2,149.092683 Z M129.6,99.5707317 C126.965854,99.5707317 124.946341,98.604878 123.541463,96.5853659 C122.136585,94.5658537 121.434146,91.7560976 121.434146,87.9804878 C121.434146,84.3804878 122.22439,81.4829268 123.892683,79.4634146 C125.473171,77.4439024 127.756098,76.3902439 130.565854,76.3902439 C132.321951,76.3902439 134.078049,76.8292683 135.746341,77.795122 L134.517073,81.5707317 C133.287805,80.7804878 131.882927,80.3414634 130.565854,80.3414634 C128.985366,80.3414634 127.668293,81.0439024 126.702439,82.4487805 C125.736585,83.8536585 125.297561,85.697561 125.297561,88.0682927 C125.297561,90.5268293 125.64878,92.3707317 126.439024,93.6878049 C127.229268,95.004878 128.370732,95.6195122 129.77561,95.6195122 C130.565854,95.6195122 131.356098,95.5317073 132.146341,95.3560976 L132.146341,90.702439 L128.809756,90.702439 L128.809756,86.7512195 L128.809756,86.7512195 L128.809756,86.7512195 L135.746341,86.7512195 L135.746341,98.4292683 C134.604878,98.8682927 133.55122,99.2195122 132.585366,99.395122 C131.619512,99.4829268 130.653659,99.5707317 129.6,99.5707317 Z"/>
            <polygon points="49.6097561 41.5317073 50.8390244 35.5609756 34.6829268 35.5609756 28.8878049 62.9560976 36.2634146 62.9560976 38.3707317 52.6829268 46.5365854 52.6829268 47.8536585 46.7121951 39.6878049 46.7121951 40.7414634 41.5317073"/>
            <path d="M74.4585366,48.204878 C75.3365854,46.8 75.7756098,45.0439024 75.7756098,43.1121951 C75.7756098,40.5658537 74.897561,38.7219512 73.2292683,37.4926829 C71.5609756,36.2634146 69.102439,35.6487805 66.0292683,35.6487805 L58.7414634,35.6487805 L52.9463415,63.0439024 L60.2341463,63.0439024 L62.3414634,53.1219512 L62.3414634,53.1219512 L63.7463415,53.1219512 L67.4341463,63.0439024 L75.4243902,63.0439024 L74.6341463,61.2878049 L70.4195122,51.6292683 C72.2634146,50.7512195 73.5804878,49.6097561 74.4585366,48.204878 Z M67.4341463,46.4487805 C66.7317073,47.1512195 65.7658537,47.502439 64.6243902,47.502439 L63.6585366,47.502439 L64.9756098,41.2682927 L65.9414634,41.2682927 C66.7317073,41.2682927 67.4341463,41.4439024 67.7853659,41.8829268 C68.2243902,42.3219512 68.4,42.8487805 68.4,43.6390244 C68.4878049,44.7804878 68.1365854,45.7463415 67.4341463,46.4487805 Z"/>
            <polygon points="101.063415 41.5317073 102.292683 35.5609756 86.0487805 35.5609756 80.2536585 62.9560976 96.497561 62.9560976 97.8146341 56.897561 88.8585366 56.897561 89.9121951 51.804878 98.2536585 51.804878 99.5707317 45.8341463 91.2292683 45.8341463 92.1073171 41.5317073"/>
            <polygon points="124.946341 41.5317073 126.17561 35.5609756 109.931707 35.5609756 104.136585 62.9560976 120.380488 62.9560976 121.609756 56.897561 112.741463 56.897561 113.795122 51.804878 122.04878 51.804878 123.453659 45.8341463 115.112195 45.8341463 115.990244 41.5317073"/>
            <polygon points="74.7219512 15.9804878 66.995122 15.9804878 73.2292683 20.5463415 70.8585366 27.9219512 77.0926829 23.3560976 83.3268293 27.9219512 80.9560976 20.5463415 87.2780488 15.9804878 79.4634146 15.9804878 77.0926829 8.60487805"/>
            <polygon points="45.5707317 21.9512195 44.1658537 17.6487805 42.8487805 21.9512195 38.3707317 21.9512195 41.9707317 24.497561 40.5658537 28.7121951 44.1658537 26.1658537 47.7658537 28.7121951 46.3609756 24.497561 50.0487805 21.9512195"/>
            <polygon points="111.336585 21.9512195 110.019512 17.6487805 108.614634 21.9512195 104.22439 21.9512195 107.82439 24.497561 106.419512 28.7121951 110.019512 26.1658537 113.619512 28.7121951 112.214634 24.497561 115.814634 21.9512195"/>
        </g>
    </g>
<def><style type="text/css">        #color-1 {
            fill: #000000 !important;
        }
        #color-2 {
            fill: #9D9D9D !important;
        }
        #color-3 {
            fill: #FFFFFF !important;
        }</style></def></svg>
