<?xml version="1.0" encoding="UTF-8"?>
<svg xmlns="http://www.w3.org/2000/svg" xmlns:xlink="http://www.w3.org/1999/xlink" width="210px" height="210px" viewBox="0 0 210 210" version="1.1">
    <!-- Generator: Sketch 53.2 (72643) - https://sketchapp.com -->
    <title>Top Quality</title>
    <desc>Created with Sketch.</desc>
    <defs>
        <polygon id="path-1" points="0 0.368314721 179.631777 0.368314721 179.631777 180 0 180"/>
    </defs>
    <g id="Top-Quality" stroke="none" stroke-width="1" fill-rule="evenodd">
        <g id="color-1" transform="translate(15.000000, 15.000000)">
            <g id="Group-3" transform="translate(0.000000, 0.545482)">
                <mask id="mask-2" fill="white">
                    <use xlink:href="#path-1"/>
                </mask>
                <g id="color-1"/>
                <path d="M89.8159797,175.010345 C42.9666396,175.010345 4.99029442,137.033086 4.99029442,90.1837462 C4.99029442,43.3353198 42.9666396,5.35806091 89.8159797,5.35806091 C136.66532,5.35806091 174.641665,43.3353198 174.641665,90.1837462 C174.641665,137.028518 136.66532,175.010345 89.8159797,175.010345 M89.8159797,0.368314721 C40.212731,0.368314721 -0.000365482234,40.5804975 -0.000365482234,90.1837462 C-0.000365482234,139.786995 40.2081624,180.000091 89.8159797,180.000091 C139.419228,180.000091 179.632325,139.786995 179.632325,90.1837462 C179.632325,40.5804975 139.419228,0.368314721 89.8159797,0.368314721" id="color-1" mask="url(#mask-2)"/>
            </g>
            <path d="M89.8159797,137.578569 C63.9836954,137.578569 42.9666396,116.561513 42.9666396,90.7292284 C42.9666396,64.8978579 63.9836954,43.880802 89.8159797,43.880802 C115.648264,43.880802 136.66532,64.8923756 136.66532,90.7292284 C136.66532,116.561513 115.648264,137.578569 89.8159797,137.578569 M89.8159797,35.8420203 C59.5028832,35.8420203 34.9287716,60.416132 34.9287716,90.7292284 C34.9287716,121.042325 59.5028832,145.61735 89.8159797,145.61735 C120.129076,145.61735 144.703188,121.042325 144.703188,90.7292284 C144.703188,60.416132 120.129076,35.8420203 89.8159797,35.8420203"/>
            <path d="M77.3913198,86.4133401 C77.6106091,86.4133401 78.0756853,86.0387208 78.7883756,85.2803452 C79.2132487,84.8262335 79.4224873,84.3575025 79.4224873,83.8631878 C79.4224873,83.6438985 79.3420812,83.5342538 79.1776142,83.5342538 C78.9181218,83.5342538 78.4493909,83.9783147 77.7805584,84.8719188 C77.3163959,85.4301929 77.0824873,85.8596345 77.0824873,86.143797 C77.0870558,86.3183147 77.1866497,86.4133401 77.3913198,86.4133401"/>
            <path d="M60.266467,85.1560812 C61.1445381,85.1560812 61.8928629,84.6864365 62.5068731,83.7535431 C63.0962132,82.8608528 63.3904264,81.8228832 63.3904264,80.6405482 C63.3904264,79.6765888 63.1355025,78.8186193 62.6311371,78.0602437 C61.6087005,79.437198 60.5460609,81.7625787 59.4477868,85.0564873 C59.5327614,85.0564873 59.6625076,85.0711066 59.8479898,85.1058274 C60.0325584,85.1405482 60.1714416,85.1560812 60.266467,85.1560812"/>
            <path d="M129.544812,89.586731 C128.626538,90.3853096 127.997909,90.8540406 127.653442,90.9938376 C127.314457,91.1391168 126.955371,91.2131269 126.58532,91.2131269 C125.792223,91.2131269 125.34268,90.9042944 125.248569,90.2902843 C125.178213,89.8361726 125.437706,88.9928223 126.031614,87.7602335 C126.400751,87.0466294 126.769888,86.3330254 127.139939,85.6249036 C127.193848,85.4997259 127.224,85.4056142 127.224,85.3352589 C127.224,85.2502843 127.184711,85.2100812 127.099736,85.2100812 C126.895066,85.2100812 126.631005,85.3699797 126.315777,85.6842944 C126.057198,85.9437868 125.552832,86.5130254 124.794457,87.3910964 C123.931005,88.3943452 123.332528,89.1225685 123.008162,89.5912995 C122.678315,90.0609442 122.269888,90.464802 121.775574,90.8138376 C121.281259,91.1637868 120.847249,91.3383046 120.478112,91.3383046 C119.983797,91.3383046 119.734355,91.0833807 119.734355,90.5753604 C119.734355,90.3451066 119.844,90.0508934 120.064203,89.6918071 C120.393137,89.1426701 120.567655,88.8438883 120.597807,88.7881523 C121.146944,87.8305888 121.735371,86.7725178 122.368569,85.6249036 C122.408772,85.5106904 122.428873,85.4257157 122.428873,85.3553604 C122.428873,85.260335 122.38867,85.2100812 122.304609,85.2100812 C122.114558,85.2100812 121.859635,85.3699797 121.546234,85.6842944 C121.281259,85.9447005 120.776893,86.5130254 120.024,87.3910964 C119.160548,88.3943452 118.56664,89.1225685 118.237706,89.5912995 C117.91334,90.0609442 117.493949,90.464802 117.005117,90.8138376 C116.510802,91.1637868 116.08136,91.3383046 115.713137,91.3383046 C115.218822,91.3383046 114.973949,91.0833807 114.973949,90.5753604 C114.973949,90.3451066 115.079025,90.0508934 115.303797,89.6918071 C115.648264,89.1326193 115.82735,88.8283553 115.837401,88.7881523 C116.082274,88.2792183 116.705421,87.0521117 117.70867,85.111401 C117.174152,85.7144467 116.571107,86.3933299 115.896792,87.1370863 C115.852934,87.262264 115.737807,87.435868 115.547756,87.6560711 C114.175371,89.257797 112.813036,90.3898782 111.456183,91.0440914 C111.126335,91.2085584 110.817503,91.2880508 110.528772,91.2880508 C110.103898,91.2880508 109.754863,91.1190152 109.480751,90.7791168 C109.245929,90.4748528 109.130802,90.120335 109.130802,89.7064264 C109.130802,89.5017563 109.160954,89.3071371 109.23131,89.1326193 C109.489888,88.5441929 109.879127,87.7108934 110.403594,86.6226701 C107.618619,89.7365787 105.738213,91.2990152 104.750497,91.2834822 C104.091716,91.2734315 103.761868,90.9088629 103.761868,90.1961726 C103.761868,89.5373909 103.98664,88.7680508 104.440751,87.8954619 C104.850091,87.1023655 105.378213,86.1886599 106.022376,85.1607411 C105.174457,86.1786091 104.534863,86.902264 104.100853,87.3518071 C104.080751,87.3865279 104.071614,87.4166802 104.051513,87.4559695 C103.692426,88.0599289 102.918518,88.8329239 101.726132,89.7813503 C100.438721,90.809269 99.4857259,91.3236853 98.8662335,91.3236853 C98.4578071,91.3236853 98.1179086,91.1583046 97.8593299,90.8293706 C97.6537462,90.5698782 97.5495838,90.3149543 97.5495838,90.0709949 C97.5495838,89.5620609 97.6838985,88.9928223 97.9443046,88.3641929 C98.0786193,88.0206396 98.5528325,87.0219594 99.3605482,85.3654112 C98.8114112,86.0488629 98.188264,86.7926193 97.4892792,87.5811472 C97.4746599,87.591198 97.4499898,87.6012487 97.4298883,87.6103858 C97.3449137,87.7154619 97.2444061,87.8305888 97.1256244,87.9649036 C96.8012589,88.3340406 96.217401,88.8786091 95.3786193,89.586731 C94.4612589,90.3853096 93.8271472,90.8540406 93.4881624,90.9938376 C93.1436954,91.1391168 92.7891777,91.2131269 92.4145584,91.2131269 C91.6168934,91.2131269 91.177401,90.9042944 91.0823756,90.2902843 C91.012934,89.8361726 91.2724264,88.9928223 91.8608528,87.7602335 C92.2309036,87.0466294 92.5991269,86.3330254 92.9691777,85.6249036 C93.024,85.5006396 93.0486701,85.4056142 93.0486701,85.3352589 C93.0486701,85.2502843 93.0038985,85.2109949 92.9234924,85.2109949 C92.719736,85.2109949 92.4556751,85.3699797 92.1404467,85.6842944 C91.8809543,85.9447005 91.3720203,86.5130254 90.6191269,87.3910964 C89.7556751,88.3943452 89.1617665,89.1225685 88.8328325,89.5912995 C88.5038985,90.0609442 88.0890761,90.464802 87.6002437,90.8138376 C87.1059289,91.1637868 86.6719188,91.3383046 86.3027817,91.3383046 C85.808467,91.3383046 85.5590254,91.0833807 85.5590254,90.5753604 C85.5590254,90.3451066 85.6686701,90.0508934 85.8888731,89.6918071 C86.2178071,89.1426701 86.3923249,88.8438883 86.4224772,88.7881523 C86.9716142,87.8305888 87.5600406,86.7725178 88.1886701,85.6249036 C88.2288731,85.5106904 88.2535431,85.4257157 88.2535431,85.3553604 C88.2535431,85.260335 88.2087716,85.2109949 88.1283655,85.2109949 C87.9337462,85.2109949 87.6843046,85.3699797 87.3654213,85.6842944 C87.1114112,85.9447005 86.5969949,86.5130254 85.8431878,87.3910964 C84.9806497,88.3943452 84.3867411,89.1225685 84.0568934,89.5912995 C83.7279594,90.0609442 83.3186193,90.464802 82.8252183,90.8138376 C82.3309036,91.1637868 81.8968934,91.3383046 81.5277563,91.3383046 C81.0334416,91.3383046 80.7885685,91.0833807 80.7885685,90.5753604 C80.7885685,90.3460203 80.8982132,90.0508934 81.1184162,89.6918071 C81.4619695,89.1326193 81.637401,88.8283553 81.6520203,88.7881523 C81.8968934,88.2792183 82.5209543,87.0521117 83.5232893,85.111401 C82.9540508,85.760132 82.2961827,86.4929239 81.5624772,87.2969848 C81.4875533,87.6213503 81.0188223,88.1841929 80.1398376,88.9983046 C78.3690761,90.6301827 76.7572995,91.4433807 75.2853198,91.4433807 C74.8366904,91.4433807 74.4364873,91.3428731 74.0920203,91.1583046 C73.6278579,90.8942437 73.264203,90.4903858 73.0047107,89.9458173 C72.7845076,89.4917056 72.7004467,89.1079492 72.7598376,88.7936345 C72.8146599,88.4491675 72.8594315,88.2243959 72.879533,88.1147513 C72.9645076,87.8954619 73.1143553,87.6953604 73.3336447,87.5162741 C73.1636954,87.6853096 73.0147614,87.8159695 72.8895838,87.9055127 C71.6423756,89.3573909 70.3695838,90.4054112 69.0629848,91.0340406 C68.6783147,91.2286599 68.3091777,91.3236853 67.9546599,91.3236853 C67.4311066,91.3236853 67.0162843,91.1391168 66.7120203,90.769066 C66.4031878,90.3953604 66.2679594,90.0161726 66.312731,89.6168832 C66.4077563,88.7534315 67.1067411,87.5062234 68.4087716,85.8743452 C68.9177056,85.2457157 69.1717157,84.751401 69.1717157,84.3923147 C69.1717157,84.0533299 68.8784162,83.8778985 68.2845076,83.8778985 C66.8070457,85.8094721 65.7489746,87.0868325 65.1212589,87.7008426 C64.8910051,87.935665 64.6516142,87.9703858 64.4021726,87.8050051 C64.2925279,87.7510964 64.2377056,87.6606396 64.2377056,87.5354619 C64.2377056,87.411198 64.2925279,87.3061218 64.4021726,87.2065279 C64.9915127,86.5477462 65.4501929,86.0141421 65.7791269,85.6002335 C66.3428832,84.8966802 66.8170964,84.2077462 67.2163858,83.5343452 C66.9020711,83.2748528 66.7421726,82.9559695 66.7421726,82.5712995 C66.7421726,82.2569848 66.846335,81.8924162 67.0519188,81.4785076 C67.3954721,80.8197259 67.895269,80.4953604 68.5540508,80.4953604 C68.7980102,80.4953604 69.0081624,80.5602335 69.1817665,80.6954619 C69.3562843,80.8297766 69.4357766,81.0444975 69.4357766,81.3332284 C69.4357766,81.6183046 69.3562843,81.9371878 69.1872487,82.2816548 C69.5417665,82.4863249 70.0799391,82.4707919 70.7935431,82.2368832 C71.3920203,82.0322132 71.8214619,81.9280508 72.066335,81.9280508 C72.4354721,81.9280508 72.6547614,82.0870355 72.724203,82.4013503 C72.7488731,82.5109949 72.7644061,82.6206396 72.7644061,82.7357665 C72.7644061,82.9651066 72.6949645,83.2255127 72.559736,83.5041929 C72.4254213,83.7837868 72.2856244,84.0578985 72.1513096,84.3173909 C71.6962843,85.275868 71.1873503,86.3887614 70.6290761,87.6460203 C70.4636954,88.0946497 70.4636954,88.3742437 70.6290761,88.469269 C70.8584162,88.469269 71.0630863,88.3495736 71.2476548,88.1202335 C71.5775025,87.8159695 71.9859289,87.4212487 72.4802437,86.926934 C72.5551675,86.8172893 72.6501929,86.7423655 72.7598376,86.6930254 C72.9946599,86.4381015 73.3583147,86.0241929 73.8581117,85.4302843 C74.6164873,84.5266294 75.3949645,83.7792183 76.1926294,83.1898782 C77.3155736,82.3419594 78.3133401,81.9125178 79.1914112,81.9125178 C79.7652183,81.9125178 80.2293807,82.0870355 80.5683655,82.426934 C80.9530355,82.8106904 81.1476548,83.2255127 81.1476548,83.6640914 C81.1476548,84.3228731 80.7337462,85.0912995 79.915066,85.9693706 C78.7820711,87.1818579 77.4754721,88.0151574 75.9934416,88.4838883 C75.9230863,89.2376954 76.1981117,89.6223655 76.8166904,89.6369848 C77.2004467,89.6470355 77.6847107,89.4871371 78.2731371,89.1426701 C78.8076548,88.813736 79.2718173,88.444599 79.6711066,88.0297766 C80.1891777,87.4660203 80.5436954,87.1270355 80.728264,87.0119086 C80.7885685,86.9771878 80.8287716,86.9525178 80.8726294,86.926934 C81.5414619,86.1237868 82.3299898,85.1360711 83.2528325,83.9528223 C84.2560812,82.3912995 84.939533,81.6530254 85.3086701,81.7334315 C85.5535431,81.7873401 85.8029848,81.9472386 86.0579086,82.206731 C86.3073503,82.4671371 86.4617665,82.7211472 86.5165888,82.9651066 C86.6408528,83.4987107 86.6408528,83.9784061 86.5165888,84.4023655 C86.4471472,84.6518071 86.1922234,85.095868 85.7582132,85.7345482 C86.2369949,85.275868 86.6810558,84.8564772 87.0958782,84.4827716 C88.0689746,83.5891675 88.781665,83.0098782 89.2357766,82.7357665 C89.5510051,82.5457157 89.8644061,82.3520102 90.1796345,82.1619594 C90.4939492,81.9728223 90.7680609,81.8723147 90.997401,81.8723147 C91.3720203,81.8723147 91.7265381,82.1071371 92.0700914,82.5712995 C92.1249137,82.6562741 92.1504975,82.7613503 92.1504975,82.8810457 C92.170599,83.2346497 91.8864365,83.9281523 91.3272487,84.9716041 C92.0006497,84.3676447 92.8988223,83.6238883 94.0217665,82.7458173 C94.3360812,82.5566802 94.6503959,82.3611472 94.9647107,82.1720102 C95.2790254,81.9819594 95.5586193,81.8823655 95.7879594,81.8823655 C96.1570964,81.8823655 96.5116142,82.1171878 96.8560812,82.5813503 C96.9109036,82.6663249 96.9401421,82.771401 96.9401421,82.8901827 C96.9401421,83.2200305 96.6157766,84.0030761 95.9725279,85.2310964 C95.0697868,86.9570863 94.6147614,87.9850051 94.6147614,88.3148528 C94.6147614,88.4391168 94.6604467,88.4994213 94.7600406,88.4994213 C95.044203,88.4994213 95.5933401,88.1695736 96.4065381,87.5117056 C96.4266396,87.4916041 96.5161827,87.3865279 96.6760812,87.2019594 C96.6907005,87.1562741 96.7062335,87.1124162 96.7354721,87.0621624 C97.0104975,86.7478477 97.5788223,86.0488629 98.4377056,84.9716041 C98.8762843,84.3228731 99.3203452,83.6841929 99.7744569,83.0354619 C100.284305,82.3218579 100.672629,81.9326193 100.947655,81.862264 C101.316792,81.7681523 101.536081,81.7178985 101.605523,81.7178985 C101.730701,81.7178985 101.855878,81.8028731 101.994761,81.9627716 C102.598721,82.6809442 102.898416,83.1898782 102.898416,83.5041929 C102.898416,83.8742437 102.618822,84.6764772 102.059635,85.909066 C101.536081,87.0566802 101.276589,87.8004365 101.276589,88.1302843 C101.276589,88.2792183 101.33598,88.3541421 101.461157,88.3541421 C101.611005,88.3541421 101.955472,88.0745482 102.489076,87.5117056 C102.928569,87.0466294 103.273036,86.737797 103.527046,86.582467 C104.645421,85.2457157 105.977604,83.6841929 107.523594,81.8878477 C107.688975,81.7124162 107.847959,81.6183046 107.997807,81.6183046 C108.271919,81.6183046 108.631919,81.9819594 109.065929,82.7110964 C109.315371,83.1103858 109.440548,83.4091675 109.440548,83.6193198 C109.440548,83.7682538 109.390294,83.9436853 109.295269,84.1529239 C109.050396,84.726731 108.66664,85.5508934 108.143086,86.6181015 C108.033442,86.8127208 107.977706,86.9726193 107.977706,87.1124162 C107.977706,87.3015533 108.072731,87.3719086 108.26735,87.3161726 C108.49669,87.231198 108.800954,86.9972893 109.171005,86.6181015 C109.938518,85.8240914 110.902477,84.6518071 112.070193,83.1049036 C112.244711,82.8554619 112.638518,82.5959695 113.232426,82.3118071 C113.830904,82.0322132 114.290497,81.9079492 114.619431,81.9326193 C115.073543,81.9627716 115.298315,82.1272386 115.298315,82.426934 C115.298315,82.6864264 115.142985,83.1551574 114.824102,83.8239898 C114.289584,84.8519086 113.696589,86.0397259 113.037807,87.3810457 C112.832223,87.9703858 112.912629,88.264599 113.28268,88.264599 C113.461766,88.264599 113.681056,88.1449036 113.940548,87.8954619 C114.254863,87.591198 114.579228,87.2659188 114.908162,86.9077462 C115.018721,86.7926193 115.138416,86.7122132 115.272731,86.6729239 C115.892223,85.9145482 116.614964,85.0118071 117.438213,83.9528223 C118.441462,82.3912995 119.119431,81.6530254 119.494051,81.7334315 C119.738924,81.7873401 119.988365,81.9472386 120.242376,82.206731 C120.497299,82.4671371 120.651716,82.7211472 120.707452,82.9651066 C120.831716,83.4987107 120.831716,83.9784061 120.707452,84.4023655 C120.636183,84.6518071 120.382173,85.095868 119.949076,85.7345482 C120.426944,85.275868 120.871005,84.8564772 121.285827,84.4827716 C122.258924,83.5891675 122.972528,83.0098782 123.421157,82.7357665 C123.736386,82.551198 124.056183,82.3565787 124.369584,82.1665279 C124.684812,81.9773909 124.958924,81.877797 125.193746,81.877797 C125.562883,81.877797 125.917401,82.1117056 126.261868,82.5767817 C126.315777,82.6608426 126.34136,82.7659188 126.34136,82.8856142 C126.33131,83.240132 126.047147,83.9336345 125.487959,84.9761726 C126.156792,84.3722132 127.054964,83.6284569 128.182477,82.7512995 C128.496792,82.5612487 128.811107,82.3666294 129.126335,82.1765787 C129.445218,81.9874416 129.714761,81.8878477 129.94867,81.8878477 C130.317807,81.8878477 130.677807,82.1226701 131.02136,82.5859188 C131.076183,82.6708934 131.101766,82.7759695 131.101766,82.895665 C131.101766,83.2255127 130.78197,84.0085584 130.133239,85.235665 C129.230497,86.9616548 128.776386,87.9895736 128.776386,88.3194213 C128.776386,88.444599 128.825726,88.5039898 128.920751,88.5039898 C129.204914,88.5039898 129.759533,88.1750558 130.567249,87.5162741 C130.591919,87.4916041 130.747249,87.3161726 131.02136,87.0018579 C131.22603,86.7679492 131.391411,86.6528223 131.515675,86.6528223 C131.596081,86.6528223 131.685624,86.7021624 131.775168,86.8072386 C131.865624,86.9068325 131.909482,87.0018579 131.909482,87.0813503 C131.909482,87.2165787 131.705726,87.5107919 131.290904,87.9649036 C130.96197,88.3340406 130.378112,88.8786091 129.544812,89.586731 M127.079635,103.782975 L126.710497,104.316579 C126.615472,104.396071 126.416284,104.440843 126.116589,104.440843 L125.532731,104.440843 L124.804508,104.440843 C124.320244,105.274142 124.00136,105.798609 123.851513,106.033431 C122.852832,107.934853 122.324711,108.971909 122.274457,109.126325 C122.094457,109.59597 122.114558,109.890183 122.334761,110.009878 C122.398721,110.05465 122.539431,110.04003 122.743188,109.979726 C122.95334,109.920335 123.107756,109.830792 123.217401,109.725716 C123.740954,109.310893 124.340345,108.812924 125.028365,108.223584 C125.193746,108.044497 125.382883,107.954041 125.603086,107.954041 C125.891817,107.954041 126.031614,108.083787 126.031614,108.343279 C126.031614,108.468457 125.90735,108.677695 125.661563,108.962772 C125.11334,109.62064 124.26999,110.358914 123.132426,111.187645 C121.800244,112.130589 120.807046,112.59932 120.148264,112.59932 C119.61466,112.59932 119.18065,112.400132 118.850802,112.000843 C118.55202,111.661858 118.427756,111.297289 118.481665,110.918102 C118.606843,109.969675 119.235472,108.523279 120.373036,106.577086 C119.949076,107.120741 119.430091,107.749371 118.831614,108.452924 C118.74664,108.767239 118.276995,109.326426 117.408975,110.145107 C115.672934,111.791604 114.061157,112.614853 112.579127,112.614853 C112.129584,112.614853 111.721157,112.509777 111.36664,112.305107 C110.912528,112.045614 110.55801,111.636274 110.293949,111.092619 C110.073746,110.643076 109.994254,110.25932 110.049076,109.940437 C110.103898,109.59597 110.154152,109.371198 110.193442,109.261553 C110.273848,109.051401 110.418213,108.856782 110.622883,108.677695 C110.448365,108.867746 110.293036,109.002061 110.158721,109.091604 C108.826538,110.623888 107.503492,111.711198 106.191411,112.34531 C105.862477,112.514345 105.553645,112.594751 105.268569,112.594751 C104.844609,112.594751 104.49466,112.424802 104.220548,112.081249 C103.985726,111.776071 103.871513,111.421553 103.871513,111.007645 C103.871513,110.802975 103.906234,110.613838 103.971107,110.433838 C104.230599,109.845411 104.619838,109.006629 105.143391,107.923888 C102.349279,111.057898 100.467959,112.614853 99.4857259,112.59932 C98.8269442,112.584701 98.4980102,112.220132 98.4980102,111.51201 C98.4980102,110.853228 98.721868,110.084802 99.1759797,109.206731 C99.5844061,108.412721 100.114355,107.499929 100.757604,106.47201 C99.7899898,107.634244 99.0910051,108.423685 98.6624772,108.842162 C98.532731,109.146426 98.0831878,109.715665 97.3047107,110.559015 C96.0575025,111.931401 94.7993299,112.614853 93.5228832,112.614853 C92.7782132,112.62399 92.2948629,112.041046 92.0600406,110.87333 C90.8676548,112.120538 89.8744569,112.744599 89.0813604,112.744599 C88.7917157,112.744599 88.5276548,112.674244 88.2772995,112.539929 C87.7044061,112.220132 87.4147614,111.670995 87.4147614,110.893431 C87.4147614,110.698812 87.4348629,110.498711 87.4796345,110.299523 C87.5344569,109.945005 87.5792284,109.715665 87.624,109.62064 C87.7044061,109.40135 87.8487716,109.201249 88.0580102,109.022162 C87.8588223,109.22135 87.6989239,109.351096 87.5646091,109.436071 C86.9853198,110.009878 86.3365888,110.324193 85.6229848,110.379015 C85.324203,110.404599 85.0692792,110.364396 84.8646091,110.254751 C83.6621726,111.846426 82.3153706,112.639523 80.8324264,112.639523 C80.1343553,112.639523 79.5806497,112.414751 79.1667411,111.96064 C78.757401,111.51201 78.5481624,110.898 78.5481624,110.129574 C78.5481624,109.969675 78.5572995,109.809777 78.577401,109.650792 C77.4553706,110.883381 76.3068426,111.786122 75.1345584,112.34531 C74.750802,112.539929 74.3807513,112.634954 74.0271472,112.634954 C73.5072487,112.634954 73.0933401,112.449472 72.7835939,112.081249 C72.4747614,111.711198 72.3404467,111.326528 72.379736,110.928152 C72.4793299,110.064701 73.1737462,108.817492 74.4757766,107.191096 C74.9847107,106.562467 75.2341523,106.063584 75.2341523,105.709066 C75.2341523,105.364599 74.9399391,105.199218 74.350599,105.199218 C72.8740508,107.130792 71.8159797,108.408152 71.1873503,109.022162 C70.9580102,109.256071 70.7186193,109.291706 70.4691777,109.121756 C70.359533,109.066934 70.3047107,108.977391 70.3047107,108.856782 C70.3047107,108.732518 70.359533,108.622873 70.4691777,108.527848 C71.0585178,107.869066 71.517198,107.335462 71.846132,106.926122 C72.3998376,106.218 72.8786193,105.524497 73.2779086,104.851096 C72.9645076,104.596173 72.8046091,104.271807 72.8046091,103.887137 C72.8046091,103.568254 72.9087716,103.209168 73.1134416,102.795259 C73.4579086,102.136477 73.9567919,101.811198 74.6155736,101.811198 C74.8650152,101.811198 75.0696853,101.881553 75.244203,102.016782 C75.4187208,102.155665 75.5036954,102.365817 75.5036954,102.654548 C75.5036954,102.944193 75.4232893,103.258508 75.2542538,103.602975 C75.6078579,103.807645 76.1469442,103.792112 76.855066,103.558203 C77.4599391,103.353533 77.8829848,103.249371 78.1333401,103.249371 C78.5024772,103.249371 78.7217665,103.403787 78.7866396,103.72267 C78.8167919,103.832315 78.8268426,103.941959 78.8268426,104.052518 C78.8268426,104.281858 78.7619695,104.535868 78.6267411,104.825513 C78.4924264,105.105107 78.3526294,105.37465 78.2183147,105.634142 C77.764203,106.591706 77.2598376,107.704599 76.6969949,108.962772 C76.5316142,109.41597 76.5316142,109.690081 76.6969949,109.785107 C76.9309036,109.785107 77.1355736,109.665411 77.3146599,109.436071 C77.5302944,109.241452 77.7843046,108.997492 78.068467,108.717898 C78.0830863,108.602772 78.1287716,108.493127 78.223797,108.388051 C78.8917157,107.540132 79.6199391,106.712315 80.4038985,105.888152 C81.6118173,104.59069 82.6790254,103.728152 83.6119188,103.303279 C84.1309036,103.05932 84.6398376,102.934142 85.1295838,102.934142 C86.0624772,102.934142 86.6865381,103.408355 86.9999391,104.346731 C87.0702944,104.550487 87.1050152,104.790792 87.1050152,105.064904 C87.1050152,105.973127 86.7605482,107.11069 86.0770964,108.462975 C86.2369949,108.562569 86.3219695,108.752619 86.3219695,109.036782 C86.5220711,108.99201 86.6956751,108.907036 86.8555736,108.792822 C86.9158782,108.677695 87.0300914,108.568051 87.2146599,108.462975 C87.2201421,108.462975 87.2201421,108.458406 87.2256244,108.458406 C87.2996345,108.367949 87.3699898,108.268355 87.4348629,108.154142 C87.5499898,108.044497 87.664203,107.978711 87.7793299,107.949472 C88.0187208,107.68998 88.3083655,107.34003 88.6519188,106.901452 C89.4504975,105.888152 90.1942538,105.085005 90.8923249,104.496579 C91.9056244,103.633127 92.8586193,103.199117 93.7522234,103.199117 C94.3104975,103.199117 94.8148629,103.368152 95.2534416,103.712619 C96.1168934,102.126426 97.0799391,100.399523 98.1325279,98.5383046 C98.2321218,98.369269 98.3317157,98.2038883 98.4422741,98.0193198 C98.5363858,97.8950558 98.6962843,97.8548528 98.9164873,97.8950558 C99.3002437,97.9498782 99.6246091,98.189269 99.8996345,98.6132284 C100.218518,99.0920102 100.373848,99.4858173 100.373848,99.7864264 C100.373848,100.130893 99.7050152,101.666832 98.377401,104.391503 C97.8035939,105.638711 97.1000406,107.070487 96.2767919,108.687746 C96.1570964,108.867746 96.0922234,109.032213 96.0922234,109.182061 C96.0922234,109.42602 96.2365888,109.551198 96.5262335,109.551198 C96.6907005,109.551198 96.8304975,109.496376 96.9355736,109.385817 C97.1502944,109.141858 97.4390254,108.867746 97.8090761,108.547949 C97.8730355,108.363381 98.0137462,108.164193 98.2330355,107.934853 C99.355066,106.591706 100.702782,105.01465 102.259736,103.209168 C102.424203,103.029168 102.584102,102.939624 102.733949,102.939624 C103.008061,102.939624 103.362579,103.303279 103.802071,104.026934 C104.050599,104.426223 104.175777,104.730487 104.175777,104.929675 C104.175777,105.080437 104.125523,105.259523 104.031411,105.464193 C103.781056,106.042569 103.397299,106.861249 102.878315,107.929371 C102.76867,108.12399 102.713848,108.282975 102.713848,108.423685 C102.713848,108.612822 102.808873,108.682264 103.003492,108.627442 C103.232832,108.547949 103.537096,108.314041 103.906234,107.929371 C104.67466,107.136274 105.637706,105.963076 106.799939,104.416173 C106.979939,104.167645 107.369178,103.907239 107.963086,103.623076 C108.561563,103.343482 109.021157,103.213736 109.350091,103.243888 C109.798721,103.274041 110.028975,103.438508 110.028975,103.738203 C110.028975,103.996782 109.873645,104.466426 109.554761,105.135259 C109.021157,106.163178 108.426335,107.350081 107.768467,108.693228 C107.562883,109.286223 107.643289,109.575868 108.012426,109.575868 C108.192426,109.575868 108.407147,109.451604 108.671208,109.206731 C108.985523,108.902467 109.309888,108.578102 109.638822,108.219015 C109.699127,108.154142 109.764,108.098406 109.833442,108.059117 C110.058213,107.859929 110.497706,107.370183 111.165624,106.597188 C111.974254,105.668863 112.74268,104.894954 113.466335,104.277289 C114.369076,103.49333 115.317503,103.104091 116.30065,103.104091 C116.750193,103.104091 117.184203,103.183584 117.598112,103.348964 C117.896893,103.473228 118.096995,103.597492 118.19202,103.718102 C118.505421,104.087239 118.66532,104.501147 118.66532,104.949777 C118.66532,105.404802 118.506335,105.83333 118.19202,106.24267 C117.80735,106.736985 117.393442,106.980944 116.93933,106.980944 C116.280548,106.980944 115.951614,106.672112 115.951614,106.058102 C115.951614,105.853431 116.006437,105.65333 116.116081,105.459624 C116.265929,105.184599 116.515371,105.020132 116.854355,104.96531 C116.705421,104.840132 116.540041,104.780741 116.360954,104.780741 C115.716792,104.780741 114.963898,105.614041 114.100447,107.289777 C113.55131,108.357898 113.277198,109.19668 113.277198,109.795157 C113.277198,110.43932 113.55131,110.768254 114.100447,110.783787 C114.484203,110.798406 114.973036,110.633939 115.562376,110.289472 C116.085929,109.969675 116.540041,109.60602 116.93933,109.182061 C117.223492,108.882365 117.448264,108.653025 117.637401,108.477594 C118.605929,107.404904 119.783695,106.052619 121.18532,104.396071 C120.746741,104.396071 120.526538,104.227036 120.526538,103.887137 C120.526538,103.777492 120.561259,103.653228 120.631614,103.513431 C120.781462,103.253939 121.310497,103.124193 122.213239,103.124193 C122.378619,102.934142 122.498315,102.779726 122.582376,102.67465 C122.682883,102.510183 123.187249,101.666832 124.104609,100.145513 C124.253543,99.9006396 124.418924,99.7754619 124.598924,99.7754619 C124.757909,99.7754619 124.953442,99.9006396 125.172731,100.145513 C125.352731,100.350183 125.521766,100.559421 125.686234,100.764091 C125.880853,101.038203 125.975878,101.322365 125.975878,101.626629 C125.975878,101.956477 125.880853,102.325614 125.686234,102.734954 C125.686234,102.720335 125.61131,102.864701 125.461462,103.163482 C126.609076,103.163482 127.188365,103.278609 127.188365,103.513431 C127.184711,103.582873 127.149076,103.67333 127.079635,103.782975 M65.0125279,107.764904 C64.2733401,109.750386 63.1759797,111.267137 61.7231878,112.305107 C60.490599,113.198711 59.184,113.642772 57.8015635,113.642772 C56.4748629,113.642772 55.3619695,113.288254 54.4738477,112.57465 C53.5802437,111.865614 53.1361827,110.943685 53.1361827,109.820741 C53.1361827,108.807442 53.4459289,108.018914 54.0590254,107.455157 C54.5533401,107.031198 55.1024772,106.816477 55.7055228,106.816477 C56.1605482,106.816477 56.5388223,106.970893 56.8485685,107.286122 C57.1528325,107.590386 57.3072487,107.938508 57.3072487,108.323178 C57.3072487,108.76267 57.0934416,109.121756 56.6585178,109.411401 C56.2299898,109.700132 55.990599,109.865513 55.9503959,109.904802 C55.6662335,110.179827 55.5163858,110.498711 55.5163858,110.87333 C55.5163858,111.501959 55.9503959,111.816274 56.8138477,111.816274 C58.2712081,111.971604 60.1415635,109.934954 62.4230863,105.713635 C62.1032893,105.125208 61.9479594,104.661046 61.9479594,104.316579 C61.9479594,103.962061 62.0831878,103.782975 62.3572995,103.782975 C62.6469442,103.782975 62.8662335,104.002264 63.0160812,104.440843 L63.0553706,104.56602 C64.4825787,101.886122 66.0495838,99.8357665 67.7664365,98.4231777 C66.9331371,97.7351574 65.8403452,97.3952589 64.4981117,97.3952589 C62.8415635,97.3952589 61.4298883,97.9544467 60.2667411,99.0819594 C59.1045076,100.209472 58.5206497,101.58734 58.5206497,103.223787 C58.5206497,104.401553 58.7892792,105.269574 59.323797,105.818711 C59.7075533,106.108355 60.0922234,106.387036 60.4759797,106.662061 C60.5710051,106.771706 60.6212589,106.906934 60.6212589,107.070487 C60.6212589,107.50998 60.4165888,107.729269 60.0017665,107.729269 C59.8126294,107.729269 59.6125279,107.654345 59.4032893,107.499929 C58.1158782,106.597188 57.4726294,105.269574 57.4726294,103.513431 C57.4726294,101.597391 58.1761827,99.9454112 59.5878579,98.5584061 C61.0799391,97.0964772 63.0005482,96.358203 65.3405482,96.358203 C66.8079594,96.358203 68.075269,96.7118071 69.1433909,97.4107919 C69.6925279,97.0663249 70.2910051,96.7172893 70.9296853,96.358203 C71.1489746,96.2330254 71.3490761,96.1727208 71.5235939,96.1727208 C71.7977056,96.1727208 71.9375025,96.2933299 71.9375025,96.5226701 C71.9375025,96.7821624 71.752934,97.0014518 71.383797,97.1814518 C70.8602437,97.4308934 70.3960812,97.7050051 69.9821726,98.0047005 C70.7798376,98.6881523 71.3938477,99.5214518 71.8324264,100.513736 C72.2317157,101.417391 72.4318173,102.300944 72.4318173,103.164396 C72.4318173,104.521249 71.9274518,105.703584 70.9196345,106.706832 C69.9118173,107.71465 68.7541523,108.219015 67.4365888,108.219015 C66.6032893,108.219015 65.7946599,108.069168 65.0125279,107.764904 M48.415066,91.2588122 C47.5223756,90.5497766 47.0783147,89.6260203 47.0783147,88.5039898 C47.0783147,87.4916041 47.3825787,86.7030761 48.0011574,86.1393198 C48.4954721,85.7144467 49.0446091,85.5006396 49.6476548,85.5006396 C50.1017665,85.5006396 50.4809543,85.6550558 50.7907005,85.964802 C51.1004467,86.269066 51.2502944,86.6171878 51.2502944,87.0018579 C51.2502944,87.4413503 51.0355736,87.8050051 50.606132,88.0900812 C50.1721218,88.3788122 49.9382132,88.5441929 49.8980102,88.5834822 C49.6083655,88.8585076 49.4685685,89.1828731 49.4685685,89.5520102 C49.4685685,90.1852081 49.8980102,90.5004365 50.7660305,90.5004365 C52.2179086,90.6502843 54.0891777,88.6191168 56.3643046,84.397797 C56.0499898,83.8084569 55.8900914,83.3442944 55.8900914,83.0007411 C55.8900914,82.6462234 56.0253198,82.4662234 56.2994315,82.4662234 C56.5890761,82.4662234 56.8083655,82.6864264 56.9582132,83.1250051 L56.9984162,83.2447005 C58.4256244,80.564802 59.9917157,78.5190152 61.7085685,77.1018579 C60.8697868,76.4184061 59.7824772,76.0739391 58.4402437,76.0739391 C56.7836954,76.0739391 55.3665381,76.6386091 54.2088731,77.7606396 C53.0411574,78.889066 52.4572995,80.2660203 52.4572995,81.902467 C52.4572995,83.0802335 52.7268426,83.9436853 53.2604467,84.4973909 C53.6451168,84.7815533 54.0288731,85.0657157 54.4135431,85.3407411 C54.5076548,85.4503858 54.5579086,85.5856142 54.5579086,85.7491675 C54.5579086,86.1886599 54.3541523,86.4079492 53.9393299,86.4079492 C53.7447107,86.4079492 53.5455228,86.3330254 53.3408528,86.1786091 C52.0525279,85.275868 51.4092792,83.9482538 51.4092792,82.1921117 C51.4092792,80.2760711 52.1128325,78.6240914 53.5299898,77.2425685 C55.0220711,75.7751574 56.9435939,75.0414518 59.2835939,75.0414518 C60.7500914,75.0414518 62.017401,75.3904873 63.0855228,76.0894721 C63.6346599,75.7504873 64.2331371,75.3959695 64.8763858,75.0414518 C65.0956751,74.9171878 65.2957766,74.8568832 65.4702944,74.8568832 C65.7444061,74.8568832 65.8851168,74.9765787 65.8851168,75.2059188 C65.8851168,75.4654112 65.6996345,75.6856142 65.3304975,75.8647005 C64.8069442,76.1141421 64.348264,76.3836853 63.9334416,76.6879492 C64.7274518,77.371401 65.3405482,78.2101827 65.7800406,79.1978985 C66.1793299,80.1015533 66.3794315,80.9841929 66.3794315,81.8531269 C66.3794315,83.2044975 65.875066,84.3877462 64.8672487,85.3955635 C63.8594315,86.4033807 62.7017665,86.9068325 61.384203,86.9068325 C60.5454213,86.9068325 59.7377056,86.7578985 58.9592284,86.4536345 C58.2154721,88.4391168 57.1226802,89.955868 55.670802,90.9938376 C54.4382132,91.8874416 53.126132,92.3305888 51.7446091,92.3305888 C50.4115127,92.3305888 49.3041015,91.9769848 48.415066,91.2588122 M79.9762843,57.0633807 C80.6743553,57.0633807 81.2435939,57.6271371 81.2435939,58.3261218 C81.2435939,58.7345482 81.0389239,59.104599 80.7346599,59.3339391 C82.0969949,61.1650051 83.3341523,63.0764772 84.4022741,65.0573909 C84.3319188,62.8115025 84.4315127,60.5409442 84.6864365,58.2712995 C84.0578071,58.1908934 83.5634924,57.6673401 83.5634924,57.0186091 C83.5634924,56.3150558 84.132731,55.7512995 84.830802,55.7512995 C85.5297868,55.7512995 86.0990254,56.3150558 86.0990254,57.0186091 C86.0990254,57.5120102 85.8093807,57.9368832 85.4000406,58.1461218 C86.4224772,60.1964772 87.2914112,62.2925178 87.9894822,64.4232792 C88.3092792,62.2084569 88.8026802,59.9872386 89.4468426,57.7925178 C88.9278579,57.6371878 88.5431878,57.1584061 88.5431878,56.584599 C88.5431878,55.8856142 89.1124264,55.3172893 89.8104975,55.3172893 C90.504,55.3172893 91.0732386,55.8856142 91.0732386,56.584599 C91.0732386,57.1529239 90.6885685,57.6326193 90.1704975,57.7925178 C90.8183147,59.9826701 91.3126294,62.2029746 91.6269442,64.4232792 C92.3304975,62.2925178 93.204,60.1964772 94.2264365,58.1461218 C93.8079594,57.9368832 93.5183147,57.5120102 93.5183147,57.0186091 C93.5183147,56.3150558 94.0866396,55.7512995 94.7856244,55.7512995 C95.4836954,55.7512995 96.052934,56.3150558 96.052934,57.0186091 C96.052934,57.6673401 95.5641015,58.1908934 94.9354721,58.2712995 C95.1849137,60.5363756 95.2890761,62.806934 95.2196345,65.0573909 C96.2822741,63.0764772 97.5148629,61.1650051 98.8872487,59.3339391 C98.5775025,59.104599 98.3783147,58.7400305 98.3783147,58.3261218 C98.3783147,57.6271371 98.9466396,57.0633807 99.6401421,57.0633807 C100.344609,57.0633807 100.912934,57.6271371 100.908365,58.3261218 C100.908365,59.0296751 100.339127,59.5934315 99.6355736,59.5934315 C99.6209543,59.5934315 99.6008528,59.5879492 99.575269,59.5879492 C99.386132,62.6616548 98.901868,65.6659188 98.1489746,68.5742437 C98.9722234,68.6546497 99.6109036,69.3381015 99.6109036,70.1759695 C99.6109036,71.0695736 98.8872487,71.7932284 97.9936447,71.7932284 L81.621868,71.7932284 C80.7291777,71.7932284 80.0055228,71.0695736 80.0055228,70.1759695 C80.0055228,69.3381015 80.6496853,68.6546497 81.4674518,68.5742437 C80.7090761,65.6659188 80.2248122,62.6570863 80.0402437,59.5879492 C80.0155736,59.5879492 79.9954721,59.5934315 79.9762843,59.5934315 C79.2772995,59.5934315 78.7135431,59.0296751 78.7135431,58.3261218 C78.7135431,57.6271371 79.2772995,57.0633807 79.9762843,57.0633807 M102.654457,77.4910964 C103.068365,76.9574924 103.58735,76.6879492 104.216893,76.6879492 C104.655472,76.6879492 105.03466,76.8076447 105.364508,77.0378985 C105.613949,77.2169848 105.738213,77.5312995 105.738213,77.9808426 C105.738213,78.6642944 105.508873,79.2682538 105.060244,79.7817563 C104.606132,80.2961726 104.056995,80.555665 103.418315,80.555665 C103.019025,80.555665 102.684609,80.4551574 102.409584,80.2559695 C102.135472,80.0613503 101.995675,79.7223655 101.995675,79.2381015 C101.996589,78.6496751 102.215878,78.0658173 102.654457,77.4910964 M89.8159797,45.5616548 C64.8718173,45.5616548 44.6478579,65.7856142 44.6478579,90.7288629 C44.6478579,115.678508 64.8672487,135.896985 89.8159797,135.896985 C114.760142,135.896985 134.984102,115.678508 134.984102,90.7288629 C134.984102,65.7856142 114.760142,45.5616548 89.8159797,45.5616548"/>
            <path d="M65.5006294,106.372508 C65.5856041,106.372508 65.7199188,106.392609 65.9044873,106.422761 C66.0899695,106.457482 66.2288528,106.477584 66.3293604,106.477584 C67.2074315,106.477584 67.9557563,106.007939 68.5697665,105.075046 C69.1581929,104.176873 69.4533198,103.144386 69.4533198,101.961137 C69.4533198,101.003574 69.1983959,100.140122 68.6949442,99.3817462 C67.6615431,100.754132 66.5989036,103.084081 65.5006294,106.372508"/>
            <path d="M94.0521929,105.080071 C93.6730051,105.080071 92.9795025,105.783624 91.9762538,107.195299 C91.3722944,108.044132 91.0735127,108.723015 91.0735127,109.226467 C91.0735127,109.601086 91.2133096,109.785655 91.5020406,109.785655 C91.9369645,109.785655 92.590264,109.132355 93.4537157,107.829411 C94.1271168,106.811543 94.461533,106.053168 94.461533,105.548802 C94.461533,105.234487 94.3272183,105.080071 94.0521929,105.080071"/>
            <path d="M85.1056447,104.581279 C84.5565076,104.581279 83.8182335,105.439249 82.8853401,107.151533 C82.171736,108.43803 81.8172183,109.336203 81.8172183,109.840569 C81.8217868,110.204223 81.9570152,110.444528 82.2311269,110.568792 C82.3261523,110.608995 82.4211777,110.629096 82.5207716,110.629096 C82.9547817,110.629096 83.3495025,110.239858 83.6939695,109.455898 C83.5139695,109.141584 83.4244264,108.817218 83.4244264,108.488284 C83.4244264,108.293665 83.4591472,108.119147 83.5285888,107.953766 C83.7031066,107.499655 84.1526497,107.335188 84.8607716,107.460365 C85.3943756,106.432447 85.6593503,105.66402 85.6593503,105.159655 C85.6593503,104.775898 85.4747817,104.581279 85.1056447,104.581279"/>
            <polygon points="166.548518 87.6955431 160.64598 87.6955431 158.814914 82.0771675 156.992985 87.6955431 151.085878 87.6955431 155.865472 91.1630558 154.039888 96.7823452 158.814914 93.3093503 163.594508 96.7823452 161.768924 91.1630558"/>
            <polygon points="20.8124772 93.3093503 25.5920711 96.7823452 23.7664873 91.1630558 28.5460812 87.6955431 22.6389746 87.6955431 20.8124772 82.0771675 18.9859797 87.6955431 13.0834416 87.6955431 17.858467 91.1630558 16.0374518 96.7823452"/>
            <polygon points="23.6414924 60.0523858 35.761797 65.575736 37.6778376 61.3745178 25.557533 55.8456853 27.2844365 52.0583756 23.8461624 50.4922843 18.4717462 62.2827411 21.9100203 63.8497462"/>
            <path d="M41.8638883,48.4311472 C40.4074416,50.2119594 38.4009442,50.0575431 35.8416548,47.9615025 C33.2567817,45.8517563 32.7030761,43.9000812 34.1650051,42.103736 C34.8831777,41.225665 35.7420609,40.8172386 36.7343452,40.8912487 C37.7275431,40.9661726 38.8852081,41.5399797 40.2073401,42.6236345 C41.5249036,43.7008934 42.3134315,44.7087107 42.5774924,45.6571371 C42.8415533,46.6000812 42.6021624,47.5284061 41.8638883,48.4311472 M47.029066,44.6538883 C46.7640914,42.6126701 45.5168832,40.6820102 43.2910964,38.8600812 C41.0607411,37.0344975 38.9254112,36.1911472 36.8841929,36.3309442 C34.8438883,36.4753096 32.9570863,37.5982538 31.2365787,39.7043452 C29.5197259,41.8049543 28.7915025,43.8754112 29.0509949,45.9312487 C29.3095736,47.9870863 30.5421624,49.9131777 32.7432792,51.7140914 C34.969066,53.5351066 37.1190152,54.3693198 39.1894721,54.2139898 C41.2599289,54.0595736 43.146731,52.9466802 44.8434822,50.8707411 C46.5649036,48.7655635 47.2931269,46.6951066 47.029066,44.6538883"/>
            <path d="M51.2949746,31.1515127 C51.1853299,31.7052183 50.8509137,32.184 50.2862437,32.5887716 L49.6027919,33.0776041 L47.3176142,29.8787208 L48.2907107,29.1852183 C48.4204569,29.092934 48.5474619,29.0125279 48.6717259,28.9458274 C49.0445178,28.7466396 49.3908122,28.6653198 49.7124365,28.701868 C50.1391371,28.7512081 50.521066,29.0107005 50.8563959,29.4794315 C51.2547716,30.0386193 51.3991371,30.5978071 51.2949746,31.1515127 M55.8452284,31.3315127 C56.1549746,29.8293807 55.7556853,28.3025787 54.6482741,26.7456244 C53.6395431,25.328467 52.4179188,24.5554721 50.9861421,24.4147614 C49.558934,24.2804467 47.9617766,24.8396345 46.2056345,26.0914112 L41.3904061,29.5296853 L51.3251269,43.446335 L55.0822843,40.761868 L51.7892893,36.1458274 L52.8464467,35.392934 C54.5331472,34.1850152 55.5363959,32.832731 55.8452284,31.3315127"/>
            <path d="M76.054203,25.9272183 C75.7143046,26.8500609 74.9760305,27.4640711 73.8485178,27.7637665 C71.6282132,28.3576751 70.0913604,27.054731 69.2379594,23.8613299 C68.3799898,20.6377766 69.0680102,18.7272183 71.3038477,18.1278274 C72.4012081,17.8336142 73.3341015,18.008132 74.0979594,18.6477259 C74.8618173,19.2854924 75.4648629,20.4285381 75.9043553,22.0805178 C76.342934,23.721533 76.3931878,25.0043756 76.054203,25.9272183 L76.054203,25.9272183 Z M79.0529848,29.3554416 C81.0832386,27.4192995 81.6022234,24.574934 80.6044569,20.8323959 C79.8661827,18.0437665 78.6235431,16.1121929 76.8765381,15.0294518 C75.1404975,13.9521929 72.9549137,13.7667107 70.325269,14.4656954 C67.7056751,15.1646802 65.8992792,16.4219391 64.9115635,18.2374721 C63.9238477,20.0548325 63.7941015,22.3400102 64.5268934,25.0893503 C65.2715635,27.8688426 66.5233401,29.7995025 68.2950152,30.8868122 C70.0666904,31.9750355 72.2467919,32.1696548 74.8362335,31.4807208 L74.8517665,31.4907716 L74.856335,31.5008223 L74.8709543,31.5108731 L78.7633401,34.4045787 L84.3223249,32.9234619 L79.0529848,29.3554416 Z"/>
            <path d="M91.4823959,29.5498782 C93.8671675,29.6193198 95.7137665,29.0610457 97.015797,27.8732284 C98.3178274,26.6854112 99.0067614,24.9694721 99.0716345,22.7336345 L99.3813807,12.4443959 L94.7607716,12.3100812 L94.4619898,22.3151574 C94.4217868,23.5468325 94.1823959,24.4258173 93.7429036,24.9539391 C93.3043249,25.4829746 92.6099086,25.7324162 91.6669645,25.7031777 C90.7843249,25.6775939 90.1255431,25.3833807 89.691533,24.8241929 C89.2566091,24.2659188 89.0574213,23.3823655 89.0921421,22.1753604 L89.3918376,12.1456142 L84.7511269,12.0058173 L84.4422944,22.3992183 C84.3774213,24.6350558 84.9512284,26.3710964 86.1637157,27.5991168 C87.3807716,28.8307919 89.1524467,29.4795228 91.4823959,29.5498782"/>
            <path d="M107.81397,24.7747614 L107.81397,24.7747614 L107.81397,24.7747614 C108.37133,23.8948629 108.857421,23.1236954 109.272244,22.4603452 C109.963005,21.3547614 110.454579,20.5497868 110.747878,20.0445076 C110.86666,19.8425787 110.975391,19.6543553 111.076812,19.4798376 C111.377421,18.9581117 111.597624,18.5624772 111.735594,18.292934 L111.735594,18.292934 C111.721888,18.4007513 111.708183,18.5277563 111.694477,18.6730355 C111.650619,19.1070457 111.604934,19.7046091 111.556508,20.468467 C111.511736,21.2323249 111.475188,21.8883655 111.449604,22.4429848 C111.440467,22.6275533 111.433157,22.8011574 111.426761,22.963797 L111.286964,25.8620711 L109.355391,25.257198 L107.81397,24.7747614 Z M115.723005,34.5943553 L115.498234,16.5212589 L109.620365,14.6700914 L99.1365076,29.3652183 L103.97732,30.8920203 L105.763614,28.0979086 L111.063107,29.7690761 L110.903208,33.0776041 L115.723005,34.5943553 Z"/>
            <polygon points="127.438995 37.8476954 121.825188 34.4094213 128.810467 23.0136853 124.874223 20.5978477 115.941838 35.1787614 125.488234 41.0264772"/>
            <polygon points="126.619401 42.1517056 137.891787 29.2922132 141.381228 32.3512995 130.108843 45.2107919"/>
            <polygon points="133.830914 49.2146497 136.73467 52.8073401 147.098832 44.4341421 149.712944 47.6732284 152.652335 45.2975939 144.509391 35.2185076 141.57 37.5932284 144.194162 40.8414518"/>
            <polygon points="141.525137 60.3816853 143.536203 64.578335 149.558437 61.6937665 161.384528 62.2675736 159.223614 57.7520406 152.232853 57.831533 156.688995 52.4580305 154.51803 47.9223959 147.423107 57.5574213"/>
            <polygon points="34.9133299 127.299381 38.2063249 125.452782 31.8697766 114.151157 28.575868 115.997756 30.6170863 119.640701 18.995665 126.151766 21.2561726 130.183949 32.8775939 123.666487"/>
            <path d="M42.1686091,137.034731 C41.9593706,138.012396 41.2302335,139.080518 39.9830254,140.242751 C38.7403858,141.400416 37.6329746,142.043665 36.6598782,142.178893 C35.6867817,142.313208 34.8032284,141.954122 34.0046497,141.096152 C32.4385584,139.41402 32.8625178,137.444071 35.2829239,135.193614 C37.728,132.918487 39.7335838,132.628843 41.3152081,134.32468 C42.0891168,135.15798 42.3732792,136.061635 42.1686091,137.034731 M44.090132,131.745289 C42.243533,129.759807 40.2872893,128.756558 38.2168325,128.736457 C36.1454619,128.716355 34.0704365,129.674832 31.9890152,131.615543 C29.8838376,133.576355 28.7663756,135.592904 28.641198,137.66336 C28.5114518,139.733817 29.3648528,141.754934 31.1904365,143.715746 C33.048,145.706711 35.0033299,146.709959 37.0591675,146.724579 C39.1140914,146.740112 41.1955127,145.767015 43.3006904,143.805289 C45.412264,141.839909 46.5342944,139.833411 46.6695228,137.793107 C46.8038376,135.752802 45.945868,133.736254 44.090132,131.745289"/>
            <path d="M54.4183858,147.528091 C54.0446802,148.101898 53.5805178,148.441797 53.0268122,148.545959 C52.4731066,148.651036 51.903868,148.516721 51.3200102,148.137533 L50.6109746,147.677939 L52.7517868,144.384944 L53.7550355,145.033675 C54.8222437,145.727178 55.0470152,146.559563 54.4183858,147.528091 M59.1888426,145.792051 C58.7950355,144.409614 57.6921929,143.132254 55.8812284,141.954487 L50.9161523,138.730934 L41.6045787,153.071543 L45.4768629,155.586975 L48.5651878,150.831137 L49.6534112,151.540173 C51.3894518,152.672254 53.0167614,153.106264 54.5280305,152.846772 C56.0402132,152.588193 57.3175736,151.654386 58.3555431,150.05266 C59.2984873,148.595299 59.5826497,147.173574 59.1888426,145.792051"/>
            <path d="M76.3183553,159.259066 C75.919066,160.911046 75.3507411,162.057746 74.612467,162.706477 C73.8732792,163.355208 72.9358173,163.54069 71.7982538,163.265665 C69.5624162,162.72201 68.8341929,160.845259 69.6126701,157.63267 C70.3957157,154.389015 71.912467,153.041299 74.1674924,153.590437 C75.2712487,153.85998 76.0095228,154.453888 76.3731777,155.382213 C76.7377462,156.305056 76.7222132,157.597949 76.3183553,159.259066 M81.0440406,160.401198 C81.7229239,157.597949 81.5575431,155.307289 80.5451574,153.530132 C79.5327716,151.754802 77.7007919,150.542315 75.0565279,149.903635 C72.4159188,149.264954 70.2312487,149.508914 68.4942944,150.631858 C66.7582538,151.754802 65.5558173,153.700995 64.8869848,156.464954 C64.2090152,159.259066 64.3926701,161.554294 65.4260711,163.355208 C66.4585584,165.157036 68.2850558,166.375005 70.8900305,167.003635 L70.9000812,167.018254 L70.9000812,167.028305 L70.910132,167.043838 L72.945868,171.448812 L78.5395736,172.801096 L75.6102335,167.148 C78.3193706,166.414294 80.1312487,164.16932 81.0440406,160.401198"/>
            <path d="M94.381401,151.819127 L94.6555127,161.824203 C94.6902335,163.055878 94.5010964,163.949482 94.0926701,164.503188 C93.6833299,165.056893 93.0044467,165.346538 92.0615025,165.372122 C91.1834315,165.396792 90.5100305,165.141868 90.0403858,164.608264 C89.5762234,164.079228 89.3267817,163.205726 89.2920609,161.998721 L89.0179492,151.968975 L84.3772386,152.094152 L84.661401,162.487553 C84.7217056,164.727959 85.3951066,166.424711 86.6779492,167.581462 C87.9598782,168.740041 89.7662741,169.288264 92.0971371,169.223391 C94.4809949,169.158518 96.2928731,168.495168 97.5254619,167.232426 C98.7580508,165.970599 99.3419086,164.219025 99.2816041,161.984102 L98.9974416,151.694863 L94.381401,151.819127 Z"/>
            <path d="M108.602772,159.603442 L108.602772,159.603442 L108.602772,159.603442 C108.532416,156.829431 108.467543,154.978264 108.408152,154.044457 C108.347848,153.111563 108.298508,152.442731 108.252822,152.044355 C108.253736,152.044355 108.253736,152.044355 108.253736,152.044355 L108.253736,152.044355 C108.448355,152.43268 108.801959,153.066792 109.316376,153.950345 C109.829878,154.827503 110.25932,155.546589 110.598305,156.095726 L112.095868,158.580091 L108.602772,159.603442 Z M110.393635,148.480904 L104.481046,150.212376 L103.95201,168.25532 L108.822061,166.828112 L108.751706,163.510447 L114.08135,161.94801 L115.787239,164.787807 L120.637188,163.37065 L110.393635,148.480904 Z"/>
            <polygon points="126.620315 155.816132 120.069046 144.165472 116.042345 146.430548 124.420112 161.334914 134.184883 155.840802 132.358386 152.58801"/>
            <polygon points="127.036599 139.647381 130.666751 136.75733 141.316904 150.136721 137.685838 153.026772"/>
            <polygon points="143.431036 129.085766 140.636924 126.546579 131.924741 136.136832 134.718853 138.67602 137.523015 135.587695 147.382812 144.543838 150.48667 141.126579 140.632355 132.169523"/>
            <polygon points="148.555462 112.674335 146.120437 117.050985 150.227543 122.70865 143.261452 122.175046 140.816376 126.570883 152.78135 126.791086 158.494751 129.968954 160.760741 125.902964 154.927645 122.653827"/>
        </g>
    </g>
<def><style type="text/css">        #color-1 {
            fill: #000000 !important;
        }
        #color-2 {
            fill: #9D9D9D !important;
        }
        #color-3 {
            fill: #FFFFFF !important;
        }</style></def></svg>
