<?xml version="1.0" encoding="UTF-8"?>
<svg xmlns="http://www.w3.org/2000/svg" xmlns:xlink="http://www.w3.org/1999/xlink" width="210px" height="210px" viewBox="0 0 210 210" version="1.1">
    <!-- Generator: Sketch 53.2 (72643) - https://sketchapp.com -->
    <title>100% Verified</title>
    <desc>Created with Sketch.</desc>
    <g id="100%-Verified" stroke="none" stroke-width="1">
        <g id="color-1" transform="translate(10.000000, 14.000000)">
            <polygon points="0.581632653 132.321429 17.255102 139.591837 17.255102 132.321429"/>
            <polygon points="189.612245 95.6785714 189.515306 95.7755102 189.515306 132.321429 172.938776 132.321429 172.938776 139.591837 189.612245 132.321429"/>
            <path d="M121.270408,70.8622449 C121.94898,70.8622449 122.627551,70.0867347 123.112245,68.5357143 C123.596939,66.9846939 123.887755,65.3367347 123.887755,63.5918367 C123.887755,63.0102041 123.790816,62.5255102 123.596939,62.2346939 C123.403061,61.9438776 123.112245,61.8469388 122.72449,61.8469388 C122.045918,61.8469388 121.464286,62.622449 120.882653,64.0765306 C120.397959,65.627551 120.107143,67.2755102 120.107143,69.0204082 C120.204082,70.2806122 120.591837,70.8622449 121.270408,70.8622449 Z"/>
            <path d="M74.255102,81.4285714 C75.0306122,81.4285714 75.8061224,80.75 76.5816327,79.4897959 C77.3571429,78.2295918 77.9387755,76.3877551 78.4234694,73.9642857 C78.9081633,71.6377551 79.1989796,69.3112245 79.1989796,66.9846939 C79.1989796,65.8214286 79.1020408,64.9489796 78.8112245,64.2704082 C78.5204082,63.5918367 78.1326531,63.3010204 77.5510204,63.3010204 C76.7755102,63.3010204 76,64.0765306 75.3214286,65.627551 C74.6428571,67.1785714 73.9642857,69.1173469 73.4795918,71.4438776 C72.994898,73.7704082 72.8010204,76 72.8010204,78.0357143 C72.8010204,79.1989796 72.8979592,80.0714286 73.0918367,80.5561224 C73.2857143,81.1377551 73.6734694,81.4285714 74.255102,81.4285714 Z"/>
            <path d="M102.173469,63.3979592 C101.397959,63.3979592 100.622449,64.1734694 99.9438776,65.7244898 C99.2653061,67.2755102 98.5867347,69.2142857 98.1020408,71.5408163 C97.6173469,73.8673469 97.4234694,76.0969388 97.4234694,78.1326531 C97.4234694,79.2959184 97.5204082,80.1683673 97.7142857,80.6530612 C97.9081633,81.2346939 98.2959184,81.4285714 98.9744898,81.4285714 C99.75,81.4285714 100.52551,80.75 101.30102,79.4897959 C102.076531,78.2295918 102.658163,76.3877551 103.142857,73.9642857 C103.627551,71.6377551 103.918367,69.3112245 103.918367,66.9846939 C103.918367,65.8214286 103.821429,64.9489796 103.530612,64.2704082 C103.239796,63.6887755 102.755102,63.3979592 102.173469,63.3979592 Z"/>
            <path d="M25.1071429,60.005102 L26.6581633,60.005102 C30.6326531,60.005102 33.9285714,56.8061224 33.9285714,52.7346939 L33.9285714,52.5408163 C33.9285714,48.5663265 30.7295918,45.2704082 26.6581633,45.2704082 L25.1071429,45.2704082 L25.1071429,14.9285714 L95.0969388,4.84693878 L164.989796,14.9285714 L164.989796,45.2704082 L163.438776,45.2704082 C159.464286,45.2704082 156.168367,48.4693878 156.168367,52.5408163 L156.168367,52.7346939 C156.168367,56.7091837 159.367347,60.005102 163.438776,60.005102 L164.989796,60.005102 L164.989796,95.6785714 L168.964286,95.6785714 L168.964286,56.0306122 L163.438776,56.0306122 C161.596939,56.0306122 160.142857,54.5765306 160.142857,52.7346939 L160.142857,52.5408163 C160.142857,50.6989796 161.596939,49.244898 163.438776,49.244898 L168.964286,49.244898 L168.964286,13.1836735 C168.964286,12.1173469 168.091837,11.244898 167.02551,11.244898 L95.1938776,0.87244898 L23.2653061,11.244898 C22.1989796,11.244898 21.3265306,12.1173469 21.3265306,13.1836735 L21.3265306,49.244898 L26.8520408,49.244898 C28.6938776,49.244898 30.1479592,50.6989796 30.1479592,52.5408163 L30.1479592,52.7346939 C30.1479592,54.5765306 28.6938776,56.0306122 26.8520408,56.0306122 L21.3265306,56.0306122 L21.3265306,95.6785714 L25.3010204,95.6785714 L25.1071429,60.005102 L25.1071429,60.005102 Z"/>
            <path d="M26.6581633,61.1683673 L26.2704082,61.1683673 L26.2704082,95.6785714 L163.826531,95.6785714 L163.826531,61.1683673 L163.438776,61.1683673 C158.785714,61.1683673 155.005102,57.3877551 155.005102,52.7346939 L155.005102,52.5408163 C155.005102,47.8877551 158.785714,44.1071429 163.438776,44.1071429 L163.826531,44.1071429 L163.826531,15.8979592 L95.0969388,6.01020408 L26.2704082,15.8979592 L26.2704082,44.1071429 L26.6581633,44.1071429 C31.3112245,44.1071429 35.0918367,47.8877551 35.0918367,52.5408163 L35.0918367,52.7346939 C35.0918367,57.4846939 31.3112245,61.1683673 26.6581633,61.1683673 Z M150.158163,75.6122449 C150.158163,77.8418367 149.770408,79.9744898 148.994898,81.8163265 C148.219388,83.6581633 147.153061,85.2091837 145.69898,86.2755102 C144.244898,87.3418367 142.693878,87.9234694 140.94898,87.9234694 C138.719388,87.9234694 137.071429,87.3418367 136.005102,86.1785714 C134.938776,85.0153061 134.357143,83.3673469 134.357143,81.2346939 C134.357143,78.8112245 134.744898,76.6785714 135.520408,74.8367347 C136.295918,72.994898 137.362245,71.5408163 138.719388,70.4744898 C140.076531,69.4081633 141.72449,68.9234694 143.663265,68.9234694 C145.69898,68.9234694 147.25,69.505102 148.413265,70.6683673 C149.576531,71.9285714 150.158163,73.5765306 150.158163,75.6122449 Z M146.183673,57.2908163 L123.790816,87.5357143 L117.683673,87.5357143 L140.173469,57.2908163 L146.183673,57.2908163 L146.183673,57.2908163 Z M115.260204,62.8163265 C116.035714,60.9744898 117.102041,59.5204082 118.459184,58.4540816 C119.816327,57.3877551 121.464286,56.9030612 123.403061,56.9030612 C125.438776,56.9030612 126.989796,57.4846939 128.153061,58.6479592 C129.316327,59.8112245 129.897959,61.4591837 129.897959,63.5918367 C129.897959,65.8214286 129.510204,67.9540816 128.734694,69.8928571 C127.959184,71.8316327 126.892857,73.2857143 125.438776,74.3520408 C124.081633,75.4183673 122.433673,76 120.688776,76 C118.459184,76 116.811224,75.4183673 115.744898,74.255102 C114.678571,73.0918367 114.096939,71.4438776 114.096939,69.3112245 C114.193878,66.7908163 114.581633,64.6581633 115.260204,62.8163265 Z M111.867347,67.1785714 C111.867347,71.25 111.285714,74.9336735 110.122449,78.1326531 C108.959184,81.3316327 107.311224,83.755102 105.27551,85.4030612 C103.239796,87.0510204 100.816327,87.9234694 98.1020408,87.9234694 C95.1938776,87.9234694 93.0612245,87.0510204 91.5102041,85.3061224 C90.0561224,83.5612245 89.2806122,81.1377551 89.2806122,77.8418367 C89.2806122,73.7704082 89.8622449,70.0867347 91.0255102,66.7908163 C92.1887755,63.494898 93.8367347,60.9744898 95.872449,59.3265306 C97.9081633,57.6785714 100.331633,56.8061224 103.045918,56.8061224 C104.887755,56.8061224 106.535714,57.1938776 107.795918,58.0663265 C109.153061,58.9387755 110.122449,60.1020408 110.80102,61.6530612 C111.576531,63.3010204 111.867347,65.1428571 111.867347,67.1785714 Z M79.7806122,23.3622449 C79.7806122,22.3928571 79.7806122,21.4234694 79.7806122,20.5510204 C79.7806122,19.872449 80.3622449,19.2908163 81.0408163,19.2908163 C86.4693878,19.2908163 90.6377551,17.7397959 94.127551,14.3469388 C94.6122449,13.8622449 95.3877551,13.8622449 95.872449,14.3469388 C99.3622449,17.7397959 103.530612,19.2908163 108.959184,19.2908163 C109.637755,19.2908163 110.219388,19.872449 110.219388,20.5510204 C110.219388,21.4234694 110.219388,22.3928571 110.219388,23.3622449 C110.413265,32.5714286 110.607143,45.0765306 95.2908163,50.4081633 C95.1938776,50.4081633 95,50.505102 94.9030612,50.505102 C94.8061224,50.505102 94.6122449,50.505102 94.5153061,50.4081633 C79.3928571,45.1734694 79.5867347,32.5714286 79.7806122,23.3622449 Z M66.4030612,66.8877551 C67.5663265,63.5918367 69.2142857,61.0714286 71.25,59.4234694 C73.2857143,57.7755102 75.7091837,56.9030612 78.4234694,56.9030612 C80.2653061,56.9030612 81.9132653,57.2908163 83.1734694,58.1632653 C84.5306122,59.0357143 85.5,60.1989796 86.1785714,61.75 C86.8571429,63.3010204 87.244898,65.1428571 87.244898,67.1785714 C87.244898,71.25 86.6632653,74.9336735 85.5,78.1326531 C84.3367347,81.3316327 82.6887755,83.755102 80.6530612,85.4030612 C78.6173469,87.0510204 76.1938776,87.9234694 73.4795918,87.9234694 C70.5714286,87.9234694 68.4387755,87.0510204 66.8877551,85.3061224 C65.4336735,83.5612245 64.6581633,81.1377551 64.6581633,77.8418367 C64.6581633,73.8673469 65.2397959,70.1836735 66.4030612,66.8877551 Z M54.7704082,57.2908163 L61.1683673,57.2908163 L54.8673469,87.5357143 L46.8214286,87.5357143 L50.4081633,71.0561224 C50.7959184,69.2142857 51.2806122,67.4693878 51.9591837,65.7244898 C50.8928571,66.6938776 50.0204082,67.372449 49.244898,67.8571429 L45.0765306,70.4744898 L41.9744898,65.2397959 L54.7704082,57.2908163 Z"/>
            <path d="M141.239796,76.2908163 C140.755102,77.8418367 140.464286,79.4897959 140.464286,81.2346939 C140.464286,82.3979592 140.852041,82.9795918 141.530612,82.9795918 C142.209184,82.9795918 142.887755,82.2040816 143.372449,80.6530612 C143.857143,79.1020408 144.147959,77.4540816 144.147959,75.7091837 C144.147959,75.127551 144.05102,74.6428571 143.857143,74.3520408 C143.663265,74.0612245 143.372449,73.9642857 142.984694,73.9642857 C142.306122,73.9642857 141.72449,74.7397959 141.239796,76.2908163 Z"/>
            <path d="M163.826531,151.22449 L163.826531,132.321429 L26.2704082,132.321429 L26.2704082,151.22449 L95.0969388,175.846939 L163.826531,151.22449 Z M122.821429,145.117347 L124.081633,143.178571 L125.244898,145.117347 L127.47449,145.69898 L126.020408,147.443878 L126.214286,149.770408 L124.081633,148.897959 L121.94898,149.770408 L122.142857,147.443878 L120.688776,145.69898 L122.821429,145.117347 Z M109.25,147.443878 L110.897959,144.826531 L112.545918,147.443878 L115.55102,148.219388 L113.515306,150.545918 L113.709184,153.647959 L110.897959,152.484694 L108.086735,153.647959 L108.280612,150.545918 L106.244898,148.219388 L109.25,147.443878 Z M68.3418367,149.770408 L66.2091837,148.897959 L64.0765306,149.770408 L64.2704082,147.443878 L62.8163265,145.69898 L65.0459184,145.117347 L66.2091837,143.178571 L67.4693878,145.117347 L69.6989796,145.69898 L68.244898,147.443878 L68.3418367,149.770408 Z M82.2040816,153.647959 L79.3928571,152.484694 L76.5816327,153.647959 L76.7755102,150.545918 L74.7397959,148.219388 L77.744898,147.443878 L79.3928571,144.826531 L81.0408163,147.443878 L84.0459184,148.219388 L82.0102041,150.545918 L82.2040816,153.647959 Z M91.4132653,156.168367 L91.7040816,152.193878 L89.0867347,149.091837 L92.9642857,148.122449 L95.0969388,144.729592 L97.2295918,148.122449 L101.107143,149.091837 L98.4897959,152.193878 L98.7806122,156.168367 L95.0969388,154.617347 L91.4132653,156.168367 Z"/>
            <path d="M95.0969388,47.8877551 C108.183673,43.1377551 107.989796,32.6683673 107.892857,23.4591837 C107.892857,22.877551 107.892857,22.3928571 107.892857,21.8112245 C102.755102,21.6173469 98.6836735,20.0663265 95.1938776,16.9642857 C91.7040816,20.0663265 87.6326531,21.6173469 82.494898,21.8112245 C82.494898,22.2959184 82.494898,22.877551 82.494898,23.4591837 C82.2040816,32.6683673 81.9132653,43.1377551 95.0969388,47.8877551 Z M88.8928571,31.3112245 C89.377551,30.8265306 90.25,30.8265306 90.7346939,31.3112245 L93.3520408,33.9285714 L99.5561224,27.7244898 C100.040816,27.2397959 100.816327,27.2397959 101.397959,27.7244898 C101.882653,28.2091837 101.882653,29.0816327 101.397959,29.5663265 L94.3214286,36.6428571 C94.0306122,36.9336735 93.7397959,37.0306122 93.4489796,37.0306122 C93.1581633,37.0306122 92.7704082,36.9336735 92.5765306,36.6428571 L89.0867347,33.1530612 C88.4081633,32.6683673 88.4081633,31.7959184 88.8928571,31.3112245 Z"/>
            <path d="M164.989796,152.096939 L95.0969388,177.204082 L25.1071429,152.096939 L25.1071429,132.321429 L21.1326531,132.321429 L21.1326531,153.454082 C21.1326531,154.326531 21.6173469,155.005102 22.3928571,155.295918 L94.3214286,181.081633 C94.5153061,181.178571 94.8061224,181.178571 95,181.178571 C95.1938776,181.178571 95.4846939,181.178571 95.6785714,181.081633 L167.510204,155.295918 C168.285714,155.005102 168.770408,154.229592 168.770408,153.454082 L168.770408,132.321429 L164.795918,132.321429 L164.795918,152.096939 L164.989796,152.096939 Z"/>
            <path d="M7.07653061,128.056122 L4.55612245,128.056122 C4.16836735,128.056122 3.78061224,128.346939 3.78061224,128.831633 C3.78061224,129.219388 4.07142857,129.607143 4.55612245,129.607143 L7.07653061,129.607143 C7.46428571,129.607143 7.85204082,129.316327 7.85204082,128.831633 C7.85204082,128.346939 7.46428571,128.056122 7.07653061,128.056122 Z"/>
            <path d="M14.5408163,128.056122 L10.8571429,128.056122 C10.4693878,128.056122 10.0816327,128.346939 10.0816327,128.831633 C10.0816327,129.219388 10.4693878,129.607143 10.8571429,129.607143 L14.5408163,129.607143 C14.9285714,129.607143 15.3163265,129.316327 15.3163265,128.831633 C15.2193878,128.346939 14.9285714,128.056122 14.5408163,128.056122 Z"/>
            <path d="M185.637755,128.056122 L181.954082,128.056122 C181.566327,128.056122 181.178571,128.346939 181.178571,128.831633 C181.178571,129.219388 181.469388,129.607143 181.954082,129.607143 L185.637755,129.607143 C186.02551,129.607143 186.413265,129.316327 186.413265,128.831633 C186.413265,128.346939 186.02551,128.056122 185.637755,128.056122 Z"/>
            <path d="M178.173469,128.056122 L174.489796,128.056122 C174.102041,128.056122 173.714286,128.346939 173.714286,128.831633 C173.714286,129.219388 174.005102,129.607143 174.489796,129.607143 L178.173469,129.607143 C178.561224,129.607143 178.94898,129.316327 178.94898,128.831633 C178.94898,128.346939 178.561224,128.056122 178.173469,128.056122 Z"/>
            <path d="M122.336735,128.056122 C121.94898,128.056122 121.561224,128.346939 121.561224,128.831633 C121.561224,129.219388 121.852041,129.607143 122.336735,129.607143 L126.020408,129.607143 C126.408163,129.607143 126.795918,129.316327 126.795918,128.831633 C126.795918,128.443878 126.505102,128.056122 126.020408,128.056122 L122.336735,128.056122 Z"/>
            <path d="M144.729592,128.056122 C144.341837,128.056122 143.954082,128.346939 143.954082,128.831633 C143.954082,129.219388 144.244898,129.607143 144.729592,129.607143 L148.413265,129.607143 C148.80102,129.607143 149.188776,129.316327 149.188776,128.831633 C149.188776,128.443878 148.897959,128.056122 148.413265,128.056122 L144.729592,128.056122 Z"/>
            <path d="M106.729592,128.831633 C106.729592,129.219388 107.020408,129.607143 107.505102,129.607143 L111.188776,129.607143 C111.576531,129.607143 111.964286,129.316327 111.964286,128.831633 C111.964286,128.443878 111.673469,128.056122 111.188776,128.056122 L107.505102,128.056122 C107.117347,128.056122 106.729592,128.346939 106.729592,128.831633 Z"/>
            <path d="M137.265306,128.056122 C136.877551,128.056122 136.489796,128.346939 136.489796,128.831633 C136.489796,129.219388 136.780612,129.607143 137.265306,129.607143 L140.94898,129.607143 C141.336735,129.607143 141.72449,129.316327 141.72449,128.831633 C141.72449,128.443878 141.433673,128.056122 140.94898,128.056122 L137.265306,128.056122 Z"/>
            <path d="M92.5765306,128.056122 C92.1887755,128.056122 91.8010204,128.346939 91.8010204,128.831633 C91.8010204,129.219388 92.0918367,129.607143 92.5765306,129.607143 L96.2602041,129.607143 C96.6479592,129.607143 97.0357143,129.316327 97.0357143,128.831633 C97.0357143,128.443878 96.744898,128.056122 96.2602041,128.056122 L92.5765306,128.056122 Z"/>
            <path d="M129.80102,128.056122 C129.413265,128.056122 129.02551,128.346939 129.02551,128.831633 C129.02551,129.219388 129.316327,129.607143 129.80102,129.607143 L133.484694,129.607143 C133.872449,129.607143 134.260204,129.316327 134.260204,128.831633 C134.260204,128.443878 133.969388,128.056122 133.484694,128.056122 L129.80102,128.056122 Z"/>
            <path d="M100.040816,129.510204 L103.72449,129.510204 C104.112245,129.510204 104.5,129.219388 104.5,128.734694 C104.5,128.346939 104.209184,127.959184 103.72449,127.959184 L100.040816,127.959184 C99.6530612,127.959184 99.2653061,128.25 99.2653061,128.734694 C99.2653061,129.219388 99.6530612,129.510204 100.040816,129.510204 Z"/>
            <path d="M76.9693878,128.831633 C76.9693878,129.219388 77.2602041,129.607143 77.744898,129.607143 L81.4285714,129.607143 C81.8163265,129.607143 82.2040816,129.316327 82.2040816,128.831633 C82.2040816,128.443878 81.9132653,128.056122 81.4285714,128.056122 L77.744898,128.056122 C77.3571429,128.056122 76.9693878,128.346939 76.9693878,128.831633 Z"/>
            <path d="M47.9846939,129.510204 L51.6683673,129.510204 C52.0561224,129.510204 52.4438776,129.219388 52.4438776,128.734694 C52.4438776,128.346939 52.1530612,127.959184 51.6683673,127.959184 L47.9846939,127.959184 C47.5969388,127.959184 47.2091837,128.25 47.2091837,128.734694 C47.2091837,129.219388 47.5969388,129.510204 47.9846939,129.510204 Z"/>
            <path d="M151.321429,128.831633 C151.321429,129.219388 151.612245,129.607143 152.096939,129.607143 L155.780612,129.607143 C156.168367,129.607143 156.556122,129.316327 156.556122,128.831633 C156.556122,128.443878 156.265306,128.056122 155.780612,128.056122 L152.096939,128.056122 C151.709184,128.056122 151.321429,128.346939 151.321429,128.831633 Z"/>
            <path d="M40.5204082,128.056122 C40.1326531,128.056122 39.744898,128.346939 39.744898,128.831633 C39.744898,129.219388 40.0357143,129.607143 40.5204082,129.607143 L44.2040816,129.607143 C44.5918367,129.607143 44.9795918,129.316327 44.9795918,128.831633 C44.9795918,128.443878 44.6887755,128.056122 44.2040816,128.056122 L40.5204082,128.056122 Z"/>
            <path d="M85.2091837,129.510204 L88.8928571,129.510204 C89.2806122,129.510204 89.6683673,129.219388 89.6683673,128.734694 C89.6683673,128.346939 89.377551,127.959184 88.8928571,127.959184 L85.2091837,127.959184 C84.8214286,127.959184 84.4336735,128.25 84.4336735,128.734694 C84.4336735,129.219388 84.7244898,129.510204 85.2091837,129.510204 Z"/>
            <path d="M70.2806122,128.056122 C69.8928571,128.056122 69.505102,128.346939 69.505102,128.831633 C69.505102,129.219388 69.7959184,129.607143 70.2806122,129.607143 L73.9642857,129.607143 C74.3520408,129.607143 74.7397959,129.316327 74.7397959,128.831633 C74.7397959,128.443878 74.3520408,128.056122 73.9642857,128.056122 L70.2806122,128.056122 Z"/>
            <path d="M62.8163265,128.056122 C62.4285714,128.056122 62.0408163,128.346939 62.0408163,128.831633 C62.0408163,129.219388 62.3316327,129.607143 62.8163265,129.607143 L66.5,129.607143 C66.8877551,129.607143 67.2755102,129.316327 67.2755102,128.831633 C67.2755102,128.443878 66.9846939,128.056122 66.5,128.056122 L62.8163265,128.056122 Z"/>
            <path d="M55.4489796,129.510204 L59.1326531,129.510204 C59.5204082,129.510204 59.9081633,129.219388 59.9081633,128.734694 C59.9081633,128.346939 59.6173469,127.959184 59.1326531,127.959184 L55.4489796,127.959184 C55.0612245,127.959184 54.6734694,128.25 54.6734694,128.734694 C54.6734694,129.219388 54.9642857,129.510204 55.4489796,129.510204 Z"/>
            <path d="M114.969388,128.056122 C114.581633,128.056122 114.193878,128.346939 114.193878,128.831633 C114.193878,129.219388 114.484694,129.607143 114.969388,129.607143 L118.653061,129.607143 C119.040816,129.607143 119.428571,129.316327 119.428571,128.831633 C119.428571,128.443878 119.137755,128.056122 118.653061,128.056122 L114.969388,128.056122 Z"/>
            <path d="M24.9132653,128.831633 C24.9132653,129.219388 25.3010204,129.607143 25.6887755,129.607143 L29.372449,129.607143 C29.7602041,129.607143 30.1479592,129.316327 30.1479592,128.831633 C30.1479592,128.443878 29.8571429,128.056122 29.372449,128.056122 L25.6887755,128.056122 C25.2040816,128.056122 24.9132653,128.346939 24.9132653,128.831633 Z"/>
            <path d="M33.0561224,129.510204 L36.7397959,129.510204 C37.127551,129.510204 37.5153061,129.219388 37.5153061,128.734694 C37.5153061,128.346939 37.2244898,127.959184 36.7397959,127.959184 L33.0561224,127.959184 C32.6683673,127.959184 32.2806122,128.25 32.2806122,128.734694 C32.377551,129.219388 32.6683673,129.510204 33.0561224,129.510204 Z"/>
            <path d="M18.2244898,128.056122 C17.8367347,128.056122 17.4489796,128.346939 17.4489796,128.831633 C17.4489796,129.219388 17.7397959,129.607143 18.2244898,129.607143 L21.9081633,129.607143 C22.2959184,129.607143 22.6836735,129.316327 22.6836735,128.831633 C22.6836735,128.443878 22.3928571,128.056122 21.9081633,128.056122 L18.2244898,128.056122 Z"/>
            <path d="M163.244898,128.056122 L159.561224,128.056122 C159.173469,128.056122 158.785714,128.346939 158.785714,128.831633 C158.785714,129.219388 159.076531,129.607143 159.561224,129.607143 L163.244898,129.607143 C163.632653,129.607143 164.020408,129.316327 164.020408,128.831633 C164.020408,128.346939 163.729592,128.056122 163.244898,128.056122 Z"/>
            <path d="M167.02551,129.510204 L170.709184,129.510204 C171.096939,129.510204 171.484694,129.219388 171.484694,128.734694 C171.484694,128.346939 171.096939,127.959184 170.709184,127.959184 L167.02551,127.959184 C166.637755,127.959184 166.25,128.25 166.25,128.734694 C166.25,129.219388 166.540816,129.510204 167.02551,129.510204 Z"/>
            <path d="M175.653061,100.040816 L179.336735,100.040816 C179.72449,100.040816 180.112245,99.75 180.112245,99.2653061 C180.112245,98.877551 179.72449,98.4897959 179.336735,98.4897959 L175.653061,98.4897959 C175.265306,98.4897959 174.877551,98.7806122 174.877551,99.2653061 C174.877551,99.75 175.265306,100.040816 175.653061,100.040816 Z"/>
            <path d="M12.0204082,100.040816 L15.7040816,100.040816 C16.0918367,100.040816 16.4795918,99.75 16.4795918,99.2653061 C16.4795918,98.877551 16.1887755,98.4897959 15.7040816,98.4897959 L12.0204082,98.4897959 C11.6326531,98.4897959 11.244898,98.7806122 11.244898,99.2653061 C11.244898,99.75 11.5357143,100.040816 12.0204082,100.040816 Z"/>
            <path d="M9.01530612,99.2653061 C9.01530612,98.877551 8.7244898,98.4897959 8.23979592,98.4897959 L4.55612245,98.4897959 C4.16836735,98.4897959 3.78061224,98.7806122 3.78061224,99.2653061 C3.78061224,99.6530612 4.07142857,100.040816 4.55612245,100.040816 L8.23979592,100.040816 C8.7244898,100.040816 9.01530612,99.75 9.01530612,99.2653061 Z"/>
            <path d="M182.341837,99.2653061 C182.341837,99.6530612 182.632653,100.040816 183.117347,100.040816 L185.637755,100.040816 C186.02551,100.040816 186.413265,99.75 186.413265,99.2653061 C186.413265,98.877551 186.122449,98.4897959 185.637755,98.4897959 L183.117347,98.4897959 C182.729592,98.4897959 182.341837,98.877551 182.341837,99.2653061 Z"/>
            <path d="M171.969388,98.4897959 L168.285714,98.4897959 C167.897959,98.4897959 167.510204,98.7806122 167.510204,99.2653061 C167.510204,99.6530612 167.80102,100.040816 168.285714,100.040816 L171.969388,100.040816 C172.357143,100.040816 172.744898,99.75 172.744898,99.2653061 C172.744898,98.877551 172.357143,98.4897959 171.969388,98.4897959 Z"/>
            <path d="M119.913265,100.040816 C120.30102,100.040816 120.688776,99.75 120.688776,99.2653061 C120.688776,98.877551 120.30102,98.4897959 119.913265,98.4897959 L116.229592,98.4897959 C115.841837,98.4897959 115.454082,98.7806122 115.454082,99.2653061 C115.454082,99.6530612 115.744898,100.040816 116.229592,100.040816 L119.913265,100.040816 Z"/>
            <path d="M38.7755102,99.2653061 C38.7755102,98.877551 38.3877551,98.4897959 38,98.4897959 L34.3163265,98.4897959 C33.9285714,98.4897959 33.5408163,98.7806122 33.5408163,99.2653061 C33.5408163,99.6530612 33.8316327,100.040816 34.3163265,100.040816 L38,100.040816 C38.4846939,100.040816 38.7755102,99.75 38.7755102,99.2653061 Z"/>
            <path d="M105.760204,99.2653061 C105.760204,98.877551 105.372449,98.4897959 104.984694,98.4897959 L101.30102,98.4897959 C100.913265,98.4897959 100.52551,98.7806122 100.52551,99.2653061 C100.52551,99.6530612 100.816327,100.040816 101.30102,100.040816 L104.984694,100.040816 C105.372449,100.040816 105.760204,99.75 105.760204,99.2653061 Z"/>
            <path d="M97.5204082,100.040816 C97.9081633,100.040816 98.2959184,99.75 98.2959184,99.2653061 C98.2959184,98.877551 97.9081633,98.4897959 97.5204082,98.4897959 L93.8367347,98.4897959 C93.4489796,98.4897959 93.0612245,98.7806122 93.0612245,99.2653061 C93.0612245,99.6530612 93.3520408,100.040816 93.8367347,100.040816 L97.5204082,100.040816 Z"/>
            <path d="M23.1683673,98.4897959 L19.4846939,98.4897959 C19.0969388,98.4897959 18.7091837,98.7806122 18.7091837,99.2653061 C18.7091837,99.6530612 19,100.040816 19.4846939,100.040816 L23.1683673,100.040816 C23.5561224,100.040816 23.9438776,99.75 23.9438776,99.2653061 C23.9438776,98.877551 23.5561224,98.4897959 23.1683673,98.4897959 Z"/>
            <path d="M157.816327,99.2653061 C157.816327,98.877551 157.52551,98.4897959 157.040816,98.4897959 L153.357143,98.4897959 C152.969388,98.4897959 152.581633,98.7806122 152.581633,99.2653061 C152.581633,99.6530612 152.872449,100.040816 153.357143,100.040816 L157.040816,100.040816 C157.52551,100.040816 157.816327,99.75 157.816327,99.2653061 Z"/>
            <path d="M149.673469,100.040816 C150.061224,100.040816 150.44898,99.75 150.44898,99.2653061 C150.44898,98.877551 150.158163,98.4897959 149.673469,98.4897959 L145.989796,98.4897959 C145.602041,98.4897959 145.214286,98.7806122 145.214286,99.2653061 C145.214286,99.6530612 145.505102,100.040816 145.989796,100.040816 L149.673469,100.040816 Z"/>
            <path d="M142.209184,100.040816 C142.596939,100.040816 142.984694,99.75 142.984694,99.2653061 C142.984694,98.877551 142.693878,98.4897959 142.209184,98.4897959 L138.52551,98.4897959 C138.137755,98.4897959 137.75,98.7806122 137.75,99.2653061 C137.75,99.6530612 138.040816,100.040816 138.52551,100.040816 L142.209184,100.040816 Z"/>
            <path d="M123.596939,100.040816 L127.280612,100.040816 C127.668367,100.040816 128.056122,99.75 128.056122,99.2653061 C128.056122,98.877551 127.765306,98.4897959 127.280612,98.4897959 L123.596939,98.4897959 C123.209184,98.4897959 122.821429,98.7806122 122.821429,99.2653061 C122.821429,99.75 123.209184,100.040816 123.596939,100.040816 Z"/>
            <path d="M112.44898,100.040816 C112.836735,100.040816 113.22449,99.75 113.22449,99.2653061 C113.22449,98.877551 112.836735,98.4897959 112.44898,98.4897959 L108.765306,98.4897959 C108.377551,98.4897959 107.989796,98.7806122 107.989796,99.2653061 C107.989796,99.6530612 108.280612,100.040816 108.765306,100.040816 L112.44898,100.040816 Z"/>
            <path d="M135.520408,99.2653061 C135.520408,98.877551 135.132653,98.4897959 134.744898,98.4897959 L131.061224,98.4897959 C130.673469,98.4897959 130.285714,98.7806122 130.285714,99.2653061 C130.285714,99.6530612 130.576531,100.040816 131.061224,100.040816 L134.744898,100.040816 C135.132653,100.040816 135.520408,99.75 135.520408,99.2653061 Z"/>
            <path d="M26.8520408,100.040816 L30.5357143,100.040816 C30.9234694,100.040816 31.3112245,99.75 31.3112245,99.2653061 C31.3112245,98.877551 31.0204082,98.4897959 30.5357143,98.4897959 L26.8520408,98.4897959 C26.4642857,98.4897959 26.0765306,98.7806122 26.0765306,99.2653061 C26.0765306,99.75 26.4642857,100.040816 26.8520408,100.040816 Z"/>
            <path d="M90.8316327,99.2653061 C90.8316327,98.877551 90.5408163,98.4897959 90.0561224,98.4897959 L86.372449,98.4897959 C85.9846939,98.4897959 85.5969388,98.7806122 85.5969388,99.2653061 C85.5969388,99.6530612 85.8877551,100.040816 86.372449,100.040816 L90.0561224,100.040816 C90.5408163,100.040816 90.8316327,99.75 90.8316327,99.2653061 Z"/>
            <path d="M67.7602041,100.040816 C68.1479592,100.040816 68.5357143,99.75 68.5357143,99.2653061 C68.5357143,98.877551 68.244898,98.4897959 67.7602041,98.4897959 L64.0765306,98.4897959 C63.6887755,98.4897959 63.3010204,98.7806122 63.3010204,99.2653061 C63.3010204,99.6530612 63.6887755,100.040816 64.0765306,100.040816 L67.7602041,100.040816 Z"/>
            <path d="M61.0714286,99.2653061 C61.0714286,98.877551 60.7806122,98.4897959 60.2959184,98.4897959 L56.6122449,98.4897959 C56.2244898,98.4897959 55.8367347,98.7806122 55.8367347,99.2653061 C55.8367347,99.6530612 56.2244898,100.040816 56.6122449,100.040816 L60.2959184,100.040816 C60.7806122,100.040816 61.0714286,99.75 61.0714286,99.2653061 Z"/>
            <path d="M53.7040816,99.2653061 C53.7040816,98.877551 53.3163265,98.4897959 52.9285714,98.4897959 L49.244898,98.4897959 C48.8571429,98.4897959 48.4693878,98.7806122 48.4693878,99.2653061 C48.4693878,99.6530612 48.7602041,100.040816 49.244898,100.040816 L52.9285714,100.040816 C53.3163265,100.040816 53.7040816,99.75 53.7040816,99.2653061 Z"/>
            <path d="M76,99.2653061 C76,98.877551 75.7091837,98.4897959 75.2244898,98.4897959 L71.5408163,98.4897959 C71.1530612,98.4897959 70.7653061,98.7806122 70.7653061,99.2653061 C70.7653061,99.6530612 71.0561224,100.040816 71.5408163,100.040816 L75.2244898,100.040816 C75.6122449,100.040816 76,99.75 76,99.2653061 Z"/>
            <path d="M45.4642857,100.040816 C45.8520408,100.040816 46.2397959,99.75 46.2397959,99.2653061 C46.2397959,98.877551 45.8520408,98.4897959 45.4642857,98.4897959 L41.7806122,98.4897959 C41.3928571,98.4897959 41.005102,98.7806122 41.005102,99.2653061 C41.005102,99.6530612 41.2959184,100.040816 41.7806122,100.040816 L45.4642857,100.040816 Z"/>
            <path d="M165.280612,99.2653061 C165.280612,98.877551 164.989796,98.4897959 164.505102,98.4897959 L160.821429,98.4897959 C160.433673,98.4897959 160.045918,98.7806122 160.045918,99.2653061 C160.045918,99.6530612 160.336735,100.040816 160.821429,100.040816 L164.505102,100.040816 C164.892857,100.040816 165.280612,99.75 165.280612,99.2653061 Z"/>
            <path d="M82.6887755,100.040816 C83.0765306,100.040816 83.4642857,99.75 83.4642857,99.2653061 C83.4642857,98.877551 83.1734694,98.4897959 82.6887755,98.4897959 L79.005102,98.4897959 C78.6173469,98.4897959 78.2295918,98.7806122 78.2295918,99.2653061 C78.2295918,99.6530612 78.5204082,100.040816 79.005102,100.040816 L82.6887755,100.040816 Z"/>
            <path d="M25.3010204,106.438776 L22.005102,106.438776 L19.0969388,115.55102 C18.6122449,117.102041 18.4183673,118.265306 18.3214286,118.943878 C18.3214286,118.653061 18.127551,118.168367 18.0306122,117.489796 C17.8367347,116.811224 17.7397959,116.132653 17.5459184,115.647959 L14.6377551,106.535714 L11.3418367,106.535714 L16.4795918,121.755102 L19.9693878,121.755102 L25.3010204,106.438776 Z"/>
            <path d="M35.9642857,121.658163 L35.9642857,121.658163"/>
            <polygon points="35.9642857 121.658163 35.9642857 118.943878 30.4387755 118.943878 30.4387755 115.066327 35.5765306 115.066327 35.5765306 112.352041 30.4387755 112.352041 30.4387755 109.056122 35.9642857 109.056122 35.9642857 106.438776 27.2397959 106.438776 27.2397959 121.658163"/>
            <path d="M51.377551,121.658163 C50.6989796,120.688776 49.1479592,118.459184 46.9183673,114.969388 C47.7908163,114.581633 48.5663265,114 49.0510204,113.321429 C49.5357143,112.642857 49.8265306,111.867347 49.8265306,110.897959 C49.8265306,109.346939 49.3418367,108.183673 48.372449,107.505102 C47.4030612,106.729592 45.8520408,106.341837 43.7193878,106.341837 L39.2602041,106.341837 L39.2602041,121.561224 L42.4591837,121.561224 L42.4591837,115.744898 L44.2040816,115.744898 L47.8877551,121.561224 L51.377551,121.561224 L51.377551,121.658163 Z M45.755102,112.642857 C45.2704082,113.030612 44.494898,113.127551 43.5255102,113.127551 L42.4591837,113.127551 L42.4591837,108.959184 L43.4285714,108.959184 C44.494898,108.959184 45.2704082,109.153061 45.755102,109.443878 C46.2397959,109.734694 46.5306122,110.219388 46.5306122,110.994898 C46.4336735,111.770408 46.2397959,112.352041 45.755102,112.642857 Z"/>
            <rect x="53.3163265" y="106.438776" width="3.19897959" height="15.2193878"/>
            <polygon points="69.1173469 109.056122 69.1173469 106.438776 60.3928571 106.438776 60.3928571 121.658163 63.5918367 121.658163 63.5918367 115.647959 68.7295918 115.647959 68.7295918 113.030612 63.5918367 113.030612 63.5918367 109.056122"/>
            <rect x="72.122449" y="106.438776" width="3.19897959" height="15.2193878"/>
            <polygon points="88.0204082 118.943878 82.494898 118.943878 82.494898 115.066327 87.6326531 115.066327 87.6326531 112.352041 82.494898 112.352041 82.494898 109.056122 88.0204082 109.056122 88.0204082 106.438776 79.1989796 106.438776 79.1989796 121.658163 88.0204082 121.658163"/>
            <path d="M103.821429,113.903061 C103.821429,111.576531 103.142857,109.734694 101.785714,108.377551 C100.428571,107.020408 98.4897959,106.438776 95.9693878,106.438776 L91.2193878,106.438776 L91.2193878,121.658163 L95.5816327,121.658163 C98.2959184,121.658163 100.331633,120.979592 101.785714,119.622449 C103.142857,118.362245 103.821429,116.423469 103.821429,113.903061 Z M95.7755102,118.943878 L94.4183673,118.943878 L94.4183673,108.959184 L96.1632653,108.959184 C99.0714286,108.959184 100.52551,110.607143 100.52551,113.903061 C100.52551,117.295918 98.9744898,118.943878 95.7755102,118.943878 Z"/>
            <path d="M121.561224,117.392857 C121.561224,116.423469 121.270408,115.55102 120.785714,114.872449 C120.30102,114.193878 119.234694,113.515306 117.877551,112.836735 C116.811224,112.352041 116.132653,111.964286 115.841837,111.770408 C115.55102,111.576531 115.357143,111.382653 115.163265,111.188776 C115.066327,110.994898 114.969388,110.704082 114.969388,110.413265 C114.969388,109.928571 115.163265,109.540816 115.454082,109.25 C115.744898,108.959184 116.229592,108.862245 116.908163,108.862245 C117.392857,108.862245 117.97449,108.959184 118.459184,109.056122 C119.040816,109.153061 119.622449,109.443878 120.494898,109.734694 L121.561224,107.214286 C120.785714,106.826531 120.010204,106.632653 119.331633,106.438776 C118.653061,106.244898 117.877551,106.147959 117.102041,106.147959 C115.454082,106.147959 114.193878,106.535714 113.321429,107.311224 C112.44898,108.086735 111.964286,109.153061 111.964286,110.510204 C111.964286,111.188776 112.061224,111.867347 112.352041,112.352041 C112.642857,112.933673 113.030612,113.321429 113.515306,113.806122 C114,114.193878 114.678571,114.678571 115.647959,115.066327 C116.617347,115.55102 117.295918,115.841837 117.586735,116.132653 C117.877551,116.326531 118.168367,116.617347 118.362245,116.811224 C118.556122,117.005102 118.653061,117.295918 118.653061,117.586735 C118.653061,118.168367 118.459184,118.556122 118.071429,118.846939 C117.683673,119.137755 117.102041,119.234694 116.423469,119.234694 C115.841837,119.234694 115.163265,119.137755 114.484694,118.943878 C113.806122,118.75 112.933673,118.459184 111.867347,117.97449 L111.867347,120.979592 C113.127551,121.561224 114.581633,121.94898 116.229592,121.94898 C117.97449,121.94898 119.331633,121.561224 120.397959,120.785714 C121.076531,119.913265 121.561224,118.75 121.561224,117.392857 Z"/>
            <polygon points="134.357143 106.438776 122.821429 106.438776 122.821429 109.056122 126.989796 109.056122 126.989796 121.658163 130.285714 121.658163 130.285714 109.056122 134.357143 109.056122"/>
            <path d="M148.704082,108.183673 C147.443878,106.826531 145.69898,106.147959 143.27551,106.147959 C140.94898,106.147959 139.107143,106.826531 137.846939,108.183673 C136.586735,109.540816 136.005102,111.479592 136.005102,114 C136.005102,116.520408 136.586735,118.459184 137.846939,119.816327 C139.107143,121.173469 140.852041,121.852041 143.27551,121.852041 C145.602041,121.852041 147.443878,121.173469 148.704082,119.816327 C149.964286,118.459184 150.545918,116.520408 150.545918,114 C150.642857,111.479592 149.964286,109.540816 148.704082,108.183673 Z M143.372449,119.137755 C142.112245,119.137755 141.142857,118.75 140.464286,117.877551 C139.785714,117.005102 139.494898,115.744898 139.494898,114 C139.494898,112.255102 139.785714,110.994898 140.464286,110.122449 C141.142857,109.25 142.112245,108.862245 143.372449,108.862245 C145.892857,108.862245 147.25,110.607143 147.25,114 C147.25,117.489796 145.892857,119.137755 143.372449,119.137755 Z"/>
            <path d="M165.959184,121.658163 C165.280612,120.688776 163.729592,118.459184 161.5,114.969388 C162.372449,114.581633 163.147959,114 163.632653,113.321429 C164.117347,112.642857 164.408163,111.867347 164.408163,110.897959 C164.408163,109.346939 163.923469,108.183673 162.954082,107.505102 C161.984694,106.729592 160.433673,106.341837 158.30102,106.341837 L153.841837,106.341837 L153.841837,121.561224 L157.040816,121.561224 L157.040816,115.744898 L158.785714,115.744898 L162.469388,121.561224 L165.959184,121.561224 L165.959184,121.658163 Z M160.336735,112.642857 C159.852041,113.030612 159.076531,113.127551 158.107143,113.127551 L157.040816,113.127551 L157.040816,108.959184 L158.010204,108.959184 C159.076531,108.959184 159.852041,109.153061 160.336735,109.443878 C160.821429,109.734694 161.112245,110.219388 161.112245,110.994898 C161.015306,111.770408 160.821429,112.352041 160.336735,112.642857 Z"/>
            <polygon points="176.719388 121.658163 176.719388 118.943878 171.096939 118.943878 171.096939 115.066327 176.331633 115.066327 176.331633 112.352041 171.096939 112.352041 171.096939 109.056122 176.719388 109.056122 176.719388 106.438776 167.897959 106.438776 167.897959 121.658163"/>
        </g>
    </g>
<def><style type="text/css">        #color-1 {
            fill: #000000 !important;
        }
        #color-2 {
            fill: #9D9D9D !important;
        }
        #color-3 {
            fill: #FFFFFF !important;
        }</style></def></svg>
